<svg xmlns="http://www.w3.org/2000/svg" width="19.027" height="20.897" viewBox="0 0 19.027 20.897">
  <g id="Group_370" data-name="Group 370" transform="translate(0)">
    <g id="Group_369" data-name="Group 369">
      <g id="Group_365" data-name="Group 365" transform="translate(0 6.984)">
        <path id="Path_369" data-name="Path 369" d="M222.063,444.283H204.278a.621.621,0,0,1-.614-.711l1.862-12.671a.621.621,0,0,1,.614-.531H220.2a.62.62,0,0,1,.614.531l1.862,12.671a.621.621,0,0,1-.614.711ZM205,443.041h16.348l-1.68-11.429H206.677Z" transform="translate(-203.657 -430.371)" fill="#4f80e2"/>
      </g>
      <g id="Group_366" data-name="Group 366" transform="translate(5.05)">
        <path id="Path_370" data-name="Path 370" d="M230,416.68a.621.621,0,0,1-.621-.621v-6.218a3.126,3.126,0,0,0-3.067-3.175H226a3.126,3.126,0,0,0-3.067,3.175v6.218a.621.621,0,0,1-1.241,0v-6.218a4.442,4.442,0,0,1,1.259-3.113,4.31,4.31,0,0,1,1.369-.952,4.169,4.169,0,0,1,1.68-.351h.31a4.169,4.169,0,0,1,1.68.351,4.31,4.31,0,0,1,1.369.952,4.442,4.442,0,0,1,1.259,3.113v6.218A.621.621,0,0,1,230,416.68Z" transform="translate(-221.696 -405.425)" fill="#4f80e2"/>
      </g>
      <g id="Group_367" data-name="Group 367" transform="translate(4.393 9.356)">
        <circle id="Ellipse_38" data-name="Ellipse 38" cx="1.278" cy="1.278" r="1.278" fill="#4f80e2"/>
      </g>
      <g id="Group_368" data-name="Group 368" transform="translate(12.077 9.356)">
        <circle id="Ellipse_39" data-name="Ellipse 39" cx="1.278" cy="1.278" r="1.278" fill="#4f80e2"/>
      </g>
    </g>
  </g>
</svg>
