<svg xmlns="http://www.w3.org/2000/svg" width="20.123" height="17.939" viewBox="0 0 20.123 17.939">
  <g id="Group_371" data-name="Group 371" transform="translate(0 0)">
    <path id="Path_371" data-name="Path 371" d="M322.666,428.646a.725.725,0,0,1-.39-.114,35.148,35.148,0,0,1-5.121-4.039c-2.956-2.847-4.487-5.546-4.549-8.019v-.011c0-.048,0-.1,0-.144a5.612,5.612,0,0,1,10.061-3.42,5.612,5.612,0,0,1,10.061,3.42c0,.051,0,.1,0,.151v0c-.062,2.474-1.593,5.172-4.549,8.019a35.143,35.143,0,0,1-5.121,4.039A.725.725,0,0,1,322.666,428.646Zm-8.611-12.207c.052,2.05,1.472,4.474,4.106,7.011a34.276,34.276,0,0,0,4.505,3.606,34.3,34.3,0,0,0,4.505-3.606c2.634-2.537,4.054-4.961,4.105-7.011,0-.04,0-.079,0-.12a4.164,4.164,0,0,0-7.953-1.724.724.724,0,0,1-.659.424h0a.724.724,0,0,1-.659-.424,4.164,4.164,0,0,0-7.953,1.724c0,.039,0,.077,0,.115Zm17.946.017h0Z" transform="translate(-312.605 -410.707)" fill="#4f80e2"/>
  </g>
</svg>
