<svg xmlns="http://www.w3.org/2000/svg" width="12.35" height="16.505" viewBox="0 0 12.35 16.505">
  <g id="Group_267" data-name="Group 267" transform="translate(0)">
    <g id="Group_248" data-name="Group 248" transform="translate(0.629 4.744)">
      <path id="Path_268" data-name="Path 268" d="M866.474,955.8a.363.363,0,0,0-.528-.012l-.658.658a.363.363,0,0,0,.012.527.382.382,0,0,0,.5.029l.38.38.7-.7-.38-.38A.381.381,0,0,0,866.474,955.8Z" transform="translate(-865.18 -955.676)" fill="#4f80e2"/>
    </g>
    <g id="Group_265" data-name="Group 265">
      <g id="Group_250" data-name="Group 250" transform="translate(3.681)">
        <g id="Group_249" data-name="Group 249">
          <path id="Path_269" data-name="Path 269" d="M873.994,950.641a2.369,2.369,0,1,1,2.534-2.363A2.456,2.456,0,0,1,873.994,950.641Zm0-4.252a1.9,1.9,0,1,0,2.059,1.888A1.981,1.981,0,0,0,873.994,946.389Z" transform="translate(-871.46 -945.914)" fill="#4f80e2"/>
        </g>
      </g>
      <path id="Path_270" data-name="Path 270" d="M870.061,966.813a6.175,6.175,0,1,1,6.175-6.175A6.182,6.182,0,0,1,870.061,966.813Zm0-11.637a5.463,5.463,0,1,0,5.462,5.462A5.469,5.469,0,0,0,870.061,955.176Z" transform="translate(-863.886 -950.308)" fill="#4f80e2"/>
      <g id="Group_259" data-name="Group 259" transform="translate(1.203 5.312)">
        <g id="Group_251" data-name="Group 251" transform="translate(4.705)">
          <rect id="Rectangle_157" data-name="Rectangle 157" width="0.588" height="0.84" fill="#4f80e2"/>
        </g>
        <g id="Group_252" data-name="Group 252" transform="translate(1.284 1.311)">
          <rect id="Rectangle_158" data-name="Rectangle 158" width="0.475" height="0.831" transform="translate(0 0.336) rotate(-45)" fill="#4f80e2"/>
        </g>
        <g id="Group_253" data-name="Group 253" transform="translate(0 4.789)">
          <rect id="Rectangle_159" data-name="Rectangle 159" width="0.924" height="0.504" fill="#4f80e2"/>
        </g>
        <g id="Group_254" data-name="Group 254" transform="translate(1.284 7.778)">
          <rect id="Rectangle_160" data-name="Rectangle 160" width="0.831" height="0.475" transform="translate(0 0.588) rotate(-45.014)" fill="#4f80e2"/>
        </g>
        <g id="Group_255" data-name="Group 255" transform="translate(4.705 9.242)">
          <rect id="Rectangle_161" data-name="Rectangle 161" width="0.588" height="0.756" fill="#4f80e2"/>
        </g>
        <g id="Group_256" data-name="Group 256" transform="translate(7.751 7.778)">
          <rect id="Rectangle_162" data-name="Rectangle 162" width="0.475" height="0.831" transform="translate(0 0.336) rotate(-45.001)" fill="#4f80e2"/>
        </g>
        <g id="Group_257" data-name="Group 257" transform="translate(9.158 4.789)">
          <rect id="Rectangle_163" data-name="Rectangle 163" width="0.84" height="0.504" fill="#4f80e2"/>
        </g>
        <g id="Group_258" data-name="Group 258" transform="translate(7.751 1.311)">
          <rect id="Rectangle_164" data-name="Rectangle 164" width="0.831" height="0.475" transform="translate(0 0.588) rotate(-44.986)" fill="#4f80e2"/>
        </g>
      </g>
      <g id="Group_263" data-name="Group 263" transform="translate(4.9 1.531)">
        <g id="Group_262" data-name="Group 262">
          <g id="Group_260" data-name="Group 260" transform="translate(0.588 1.26)">
            <rect id="Rectangle_165" data-name="Rectangle 165" width="1.596" height="1.932" fill="#4f80e2"/>
          </g>
          <g id="Group_261" data-name="Group 261">
            <rect id="Rectangle_166" data-name="Rectangle 166" width="2.689" height="1.512" rx="0.244" fill="#4f80e2"/>
          </g>
        </g>
      </g>
      <g id="Group_264" data-name="Group 264" transform="translate(2.296 6.51)">
        <path id="Path_271" data-name="Path 271" d="M876.736,974.479v.252" transform="translate(-872.787 -967.108)" fill="#4f80e2"/>
        <path id="Path_272" data-name="Path 272" d="M876.736,974.479v.252" transform="translate(-872.787 -967.108)" fill="#4f80e2"/>
        <path id="Path_273" data-name="Path 273" d="M881.955,972.326l.006.006.159.159" transform="translate(-875.47 -966.001)" fill="#4f80e2"/>
        <line id="Line_32" data-name="Line 32" x1="0.145" y1="0.145" transform="translate(1.108 0.948)" fill="none"/>
        <line id="Line_33" data-name="Line 33" x1="0.252" transform="translate(7.646 3.674)" fill="none"/>
        <line id="Line_34" data-name="Line 34" x1="0.252" transform="translate(0 3.674)" fill="none"/>
        <line id="Line_35" data-name="Line 35" x1="0.151" y2="0.151" transform="translate(6.5 0.948)" fill="none"/>
        <line id="Line_36" data-name="Line 36" x1="0.165" y2="0.165" transform="translate(1.108 6.325)" fill="none"/>
        <path id="Path_274" data-name="Path 274" d="M873.927,959.311v3.719l-2.655-2.62.012-.006A3.921,3.921,0,0,1,873.927,959.311Z" transform="translate(-869.978 -959.311)" fill="#4f80e2"/>
        <path id="Path_275" data-name="Path 275" d="M872.756,964.124h-3.628v.03a3.711,3.711,0,0,1,1.035-2.628Z" transform="translate(-868.876 -960.45)" fill="#4f80e2"/>
        <path id="Path_276" data-name="Path 276" d="M872.7,966.872l-2.606,2.628v-.012a3.692,3.692,0,0,1-1.075-2.616Z" transform="translate(-868.819 -963.198)" fill="#4f80e2"/>
        <path id="Path_277" data-name="Path 277" d="M873.917,966.964v3.652h-.058a3.659,3.659,0,0,1-2.606-1.059l.028.005Z" transform="translate(-869.968 -963.245)" fill="#4f80e2"/>
        <path id="Path_278" data-name="Path 278" d="M879.307,969.57s.014,0,.011,0a3.644,3.644,0,0,1-2.583,1.074v-3.682Z" transform="translate(-872.787 -963.245)" fill="#4f80e2"/>
        <path id="Path_279" data-name="Path 279" d="M880.275,966.872a3.681,3.681,0,0,1-1.076,2.606l-2.606-2.606Z" transform="translate(-872.713 -963.198)" fill="#4f80e2"/>
        <path id="Path_280" data-name="Path 280" d="M880.275,964.154v-.03h-3.682l2.62-2.6A3.735,3.735,0,0,1,880.275,964.154Z" transform="translate(-872.713 -960.45)" fill="#4f80e2"/>
        <path id="Path_281" data-name="Path 281" d="M879.321,960.41l-2.585,2.62v-3.719a3.658,3.658,0,0,1,2.6,1.093S879.32,960.407,879.321,960.41Z" transform="translate(-872.787 -959.311)" fill="#4f80e2"/>
      </g>
    </g>
    <g id="Group_266" data-name="Group 266" transform="translate(5.496 7.611)">
      <path id="Path_282" data-name="Path 282" d="M876.443,964.772a.668.668,0,0,1-1.019.079l-.027-.027a.668.668,0,0,1,.079-1.019c.735-.617,2.3-1.7,2.977-2.2a.134.134,0,0,1,.188.188C878.053,962.587,877.059,964.037,876.443,964.772Z" transform="translate(-875.196 -961.576)" fill="#4f80e2"/>
    </g>
  </g>
</svg>
