<?xml version="1.0" encoding="utf-8"?>
<!-- Generator: Adobe Illustrator 24.3.0, SVG Export Plug-In . SVG Version: 6.00 Build 0)  -->
<svg version="1.1" id="Layer_1" xmlns="http://www.w3.org/2000/svg" xmlns:xlink="http://www.w3.org/1999/xlink" x="0px" y="0px"
	 viewBox="0 0 180 180" style="enable-background:new 0 0 180 180;" xml:space="preserve">
<style type="text/css">
	.st0{fill:#FFFFFF;}
	.st1{fill:#477FE8;}
	.st2{fill:#00D0CC;}
</style>
<path class="st0" d="M141.15,179.3H38.85c-21.07,0-38.15-17.08-38.15-38.15V38.85C0.7,17.78,17.78,0.7,38.85,0.7h102.3
	c21.07,0,38.15,17.08,38.15,38.15v102.3C179.3,162.22,162.22,179.3,141.15,179.3z"/>
<g>
	<g>
		<path class="st1" d="M138.62,96.25c0,0,0.49,4.71-1.21,11.86c-3.22,14.18-12.62,26.03-25.2,32.57c-6.73,3.5-14.38,5.48-22.48,5.48
			c-26.94,0-48.86-21.93-48.86-48.89V48.84c0-8.22,6.66-14.88,14.88-14.88c8.22,0,14.88,6.66,14.88,14.88v48.44
			c0,10.55,8.57,19.13,19.1,19.13c10.55,0,19.13-8.58,19.13-19.13V74.56l20.65,7.99c0.53,0.22,1.04,0.47,1.54,0.75
			c1.92,1.08,3.63,2.6,4.96,4.54C137.78,90.42,138.62,93.35,138.62,96.25z"/>
	</g>
	<path class="st2" d="M138.62,53.05v-1.43c-0.02-0.66-0.09-1.31-0.19-1.97c-0.39-2.69-1.39-5.33-3.03-7.73
		c-5.74-8.36-17.17-10.49-25.53-4.76c-8.36,5.74-10.49,17.17-4.76,25.53c1.64,2.39,3.75,4.28,6.12,5.61
		c0.62,0.35,0.03-0.06,1.91,0.93c24.56,8.45,25.48,13.42,25.48,13.42V53.05z"/>
	<g>
		<g>
			<path class="st0" d="M117.11,53.86c0,1.16-0.94,2.1-2.1,2.1c-1.16,0-2.1-0.94-2.1-2.1c0-1.16,0.94-2.1,2.1-2.1
				C116.17,51.76,117.11,52.7,117.11,53.86z"/>
			<path class="st0" d="M123.21,53.86c0,1.16-0.94,2.1-2.1,2.1c-1.16,0-2.1-0.94-2.1-2.1c0-1.16,0.94-2.1,2.1-2.1
				C122.27,51.76,123.21,52.7,123.21,53.86z"/>
			<path class="st0" d="M129.3,53.86c0,1.16-0.94,2.1-2.1,2.1c-1.16,0-2.1-0.94-2.1-2.1c0-1.16,0.94-2.1,2.1-2.1
				C128.36,51.76,129.3,52.7,129.3,53.86z"/>
		</g>
	</g>
</g>
</svg>
