<?xml version="1.0" encoding="utf-8"?>
<!-- Generator: Adobe Illustrator 24.1.0, SVG Export Plug-In . SVG Version: 6.00 Build 0)  -->
<svg version="1.1" id="Layer_1" xmlns="http://www.w3.org/2000/svg" xmlns:xlink="http://www.w3.org/1999/xlink" x="0px" y="0px"
	 viewBox="0 0 1058.32 297.65" style="enable-background:new 0 0 1058.32 297.65;" xml:space="preserve">
<style type="text/css">
	.st0{fill:#00D0CC;}
	.st1{fill:#F5CEB5;}
	.st2{fill:#FFFFFF;}
	.st3{fill:#D8D4CE;}
</style>
<g>
	<path class="st0" d="M37.61,92.03h71.88V34.5c0-2.41,0.88-4.45,2.62-6.13c1.75-1.67,3.83-2.51,6.24-2.51
		c2.41,0,4.45,0.84,6.13,2.51c1.67,1.67,2.51,3.72,2.51,6.13V166.6c0,2.41-0.86,4.45-2.57,6.13c-1.71,1.67-3.77,2.51-6.18,2.51
		c-2.49,0-4.57-0.83-6.24-2.51c-1.67-1.67-2.51-3.71-2.51-6.13v-57.06H37.61v57.06c0,2.41-0.86,4.45-2.57,6.13
		c-1.71,1.67-3.77,2.51-6.18,2.51c-2.41,0-4.47-0.83-6.18-2.51c-1.71-1.67-2.57-3.71-2.57-6.13V34.5c0-2.41,0.85-4.45,2.57-6.13
		c1.71-1.67,3.77-2.51,6.18-2.51c2.41,0,4.47,0.84,6.18,2.51c1.71,1.67,2.57,3.72,2.57,6.13V92.03z"/>
	<path class="st0" d="M166.78,128.91c0.7,4.36,2.12,8.42,4.26,12.19c2.14,3.77,4.82,7.04,8.05,9.8c3.23,2.76,6.88,4.92,10.97,6.48
		c4.08,1.56,8.42,2.33,13.01,2.33c5.76,0,10.89-1.05,15.4-3.15c4.51-2.1,8.21-4.9,11.08-8.4c1.56-1.24,3.07-1.96,4.55-2.16
		c1.48-0.19,2.88-0.1,4.2,0.29c1.71,0.7,3.07,1.91,4.08,3.62c1.17,1.63,1.71,3.56,1.63,5.78c-0.08,2.22-1.13,4.22-3.15,6.01
		c-2.02,2.1-4.3,4.05-6.83,5.83c-2.53,1.79-5.35,3.35-8.46,4.67c-3.11,1.32-6.53,2.37-10.27,3.15c-3.73,0.78-7.82,1.17-12.25,1.17
		c-7.7,0-14.94-1.44-21.7-4.32c-6.77-2.88-12.68-6.83-17.74-11.84c-5.06-5.02-9.04-10.91-11.96-17.68s-4.38-14-4.38-21.7
		c0-7.7,1.46-14.94,4.38-21.7c2.92-6.77,6.9-12.66,11.96-17.68c5.06-5.02,10.97-8.98,17.74-11.9c6.77-2.92,14-4.38,21.7-4.38
		c7.62,0,14.82,1.44,21.59,4.32c6.77,2.88,12.66,6.83,17.68,11.84c5.02,5.02,9,10.87,11.96,17.56c2.96,6.69,4.47,13.85,4.55,21.47
		c0,2.49-0.8,4.51-2.39,6.07c-1.59,1.56-3.67,2.33-6.24,2.33H166.78z M240.88,114.2c-0.62-4.51-2.04-8.73-4.26-12.66
		c-2.22-3.93-4.98-7.33-8.29-10.21c-3.31-2.88-7.1-5.13-11.38-6.77c-4.28-1.63-8.83-2.45-13.65-2.45c-4.82,0-9.36,0.84-13.59,2.51
		c-4.24,1.67-7.99,3.95-11.26,6.83c-3.27,2.88-5.97,6.28-8.11,10.21c-2.14,3.93-3.52,8.11-4.14,12.54H240.88z"/>
	<path class="st0" d="M268.88,121.03c0-7.69,1.46-14.92,4.38-21.68s6.9-12.65,11.96-17.66c5.06-5.01,10.97-8.98,17.74-11.89
		s13.96-4.37,21.59-4.37c7.62,0,14.78,1.44,21.47,4.31c6.69,2.88,12.54,6.78,17.56,11.71c5.02,4.93,8.98,10.74,11.9,17.43
		c2.92,6.68,4.45,13.83,4.61,21.45v45.81c0,2.49-0.86,4.63-2.57,6.41c-1.71,1.79-3.85,2.68-6.42,2.68c-2.49,0-4.53-0.89-6.13-2.66
		c-1.6-1.78-2.39-3.9-2.39-6.37l-0.12-5.79c-4.98,4.87-10.7,8.79-17.15,11.77c-6.46,2.98-13.38,4.46-20.77,4.46
		c-7.62,0-14.82-1.46-21.59-4.37s-12.68-6.9-17.74-11.95c-5.06-5.05-9.04-10.94-11.96-17.66S268.88,128.72,268.88,121.03z
		 M286.39,121.03c0,5.22,0.99,10.13,2.98,14.73c1.99,4.6,4.7,8.63,8.12,12.1s7.46,6.21,12.1,8.24s9.6,3.04,14.9,3.04
		c5.38,0,10.38-1.01,15.02-3.04s8.67-4.77,12.09-8.24s6.12-7.5,8.06-12.1c1.95-4.6,2.92-9.5,2.92-14.73c0-5.3-0.98-10.26-2.92-14.9
		s-4.64-8.67-8.06-12.1s-7.46-6.14-12.09-8.12s-9.64-2.98-15.02-2.98c-5.3,0-10.27,0.99-14.9,2.98s-8.67,4.69-12.1,8.12
		s-6.14,7.46-8.12,12.1S286.39,115.73,286.39,121.03z"/>
	<path class="st0" d="M420.93,166.6c0,2.41-0.86,4.45-2.57,6.13c-1.71,1.67-3.77,2.51-6.18,2.51c-2.41,0-4.47-0.83-6.18-2.51
		c-1.71-1.67-2.57-3.71-2.57-6.13V34.5c0-2.49,0.86-4.55,2.57-6.18c1.71-1.63,3.77-2.45,6.18-2.45c2.41,0,4.47,0.82,6.18,2.45
		c1.71,1.63,2.57,3.7,2.57,6.18V166.6z"/>
	<path class="st0" d="M472.15,65.43h13.65c2.49,0,4.57,0.84,6.24,2.51c1.67,1.67,2.51,3.75,2.51,6.24c0,2.49-0.84,4.57-2.51,6.24
		c-1.67,1.67-3.75,2.51-6.24,2.51h-13.65v83.67c0,2.41-0.86,4.45-2.57,6.13c-1.71,1.67-3.77,2.51-6.18,2.51
		c-2.49,0-4.59-0.83-6.3-2.51c-1.71-1.67-2.57-3.71-2.57-6.13V82.93h-11.2c-2.49,0-4.59-0.86-6.3-2.57
		c-1.71-1.71-2.57-3.77-2.57-6.18c0-2.49,0.86-4.57,2.57-6.24c1.71-1.67,3.81-2.51,6.3-2.51h11.2V34.5c0-2.49,0.85-4.55,2.57-6.18
		c1.71-1.63,3.81-2.45,6.3-2.45c2.41,0,4.47,0.82,6.18,2.45c1.71,1.63,2.57,3.7,2.57,6.18V65.43z"/>
	<path class="st0" d="M525.71,82.81c4.51-5.37,9.7-9.63,15.58-12.78c5.87-3.15,12.12-4.73,18.73-4.73c6.77,0,12.87,1.28,18.32,3.85
		c5.44,2.57,10.11,6.2,14,10.91c3.89,4.71,6.9,10.35,9.04,16.92c2.14,6.57,3.21,13.87,3.21,21.88v47.84c0,2.49-0.86,4.55-2.57,6.18
		c-1.71,1.63-3.81,2.45-6.3,2.45c-2.41,0-4.45-0.82-6.13-2.45c-1.67-1.63-2.51-3.69-2.51-6.18v-48.08
		c-0.08-5.6-0.78-10.62-2.1-15.05c-1.32-4.43-3.25-8.19-5.78-11.26c-2.53-3.07-5.56-5.43-9.1-7.06c-3.54-1.63-7.57-2.45-12.08-2.45
		c-4.43,0-8.58,0.88-12.43,2.63c-3.85,1.75-7.22,4.16-10.09,7.23c-2.88,3.07-5.19,6.69-6.94,10.85c-1.75,4.16-2.7,8.66-2.86,13.48
		v49.48c0,2.41-0.84,4.47-2.51,6.18c-1.67,1.71-3.72,2.57-6.13,2.57c-2.49,0-4.59-0.85-6.3-2.57c-1.71-1.71-2.57-3.77-2.57-6.18
		V34.85c0-2.49,0.88-4.61,2.62-6.36c1.75-1.75,3.83-2.63,6.24-2.63c2.41,0,4.45,0.88,6.13,2.63c1.67,1.75,2.51,3.87,2.51,6.36V82.81
		z"/>
	<path class="st0" d="M628.57,32.81c1.98-1.98,4.41-2.98,7.29-2.98c2.88,0,5.31,0.99,7.29,2.98c1.98,1.98,2.98,4.42,2.98,7.29
		c0,2.8-0.99,5.21-2.98,7.23c-1.98,2.02-4.42,3.03-7.29,3.03c-2.88,0-5.31-1.01-7.29-3.03c-1.98-2.02-2.98-4.43-2.98-7.23
		C625.6,37.23,626.59,34.8,628.57,32.81z M644.62,166.48c0,2.41-0.84,4.47-2.51,6.18c-1.67,1.71-3.72,2.57-6.13,2.57
		c-2.41,0-4.49-0.85-6.24-2.57c-1.75-1.71-2.62-3.77-2.62-6.18V74.06c0-2.49,0.86-4.59,2.57-6.3c1.71-1.71,3.81-2.57,6.3-2.57
		c2.49,0,4.55,0.86,6.18,2.57c1.63,1.71,2.45,3.81,2.45,6.3V166.48z"/>
	<path class="st0" d="M680.67,128.91c0.7,4.36,2.12,8.42,4.26,12.19c2.14,3.77,4.82,7.04,8.05,9.8c3.23,2.76,6.88,4.92,10.97,6.48
		c4.08,1.56,8.42,2.33,13.01,2.33c5.76,0,10.89-1.05,15.4-3.15c4.51-2.1,8.21-4.9,11.08-8.4c1.56-1.24,3.07-1.96,4.55-2.16
		c1.48-0.19,2.88-0.1,4.2,0.29c1.71,0.7,3.07,1.91,4.08,3.62c1.17,1.63,1.71,3.56,1.63,5.78c-0.08,2.22-1.13,4.22-3.15,6.01
		c-2.02,2.1-4.3,4.05-6.83,5.83c-2.53,1.79-5.35,3.35-8.46,4.67c-3.11,1.32-6.53,2.37-10.27,3.15c-3.73,0.78-7.82,1.17-12.25,1.17
		c-7.7,0-14.94-1.44-21.7-4.32c-6.77-2.88-12.68-6.83-17.74-11.84c-5.06-5.02-9.04-10.91-11.96-17.68s-4.38-14-4.38-21.7
		c0-7.7,1.46-14.94,4.38-21.7c2.92-6.77,6.9-12.66,11.96-17.68c5.06-5.02,10.97-8.98,17.74-11.9c6.77-2.92,14-4.38,21.7-4.38
		c7.62,0,14.82,1.44,21.59,4.32c6.77,2.88,12.66,6.83,17.68,11.84c5.02,5.02,9,10.87,11.96,17.56c2.96,6.69,4.47,13.85,4.55,21.47
		c0,2.49-0.8,4.51-2.39,6.07c-1.59,1.56-3.67,2.33-6.24,2.33H680.67z M754.77,114.2c-0.62-4.51-2.04-8.73-4.26-12.66
		c-2.22-3.93-4.98-7.33-8.29-10.21c-3.31-2.88-7.1-5.13-11.38-6.77c-4.28-1.63-8.83-2.45-13.65-2.45c-4.82,0-9.36,0.84-13.59,2.51
		c-4.24,1.67-7.99,3.95-11.26,6.83c-3.27,2.88-5.97,6.28-8.11,10.21c-2.14,3.93-3.52,8.11-4.14,12.54H754.77z"/>
	<path class="st0" d="M807.05,81.88c5.21-5.13,11.26-9.18,18.14-12.14c6.88-2.96,14.25-4.43,22.11-4.43h0.7
		c2.88,0,5.11,0.84,6.71,2.51c1.59,1.67,2.39,3.75,2.39,6.24c0,2.49-0.9,4.55-2.68,6.18c-1.79,1.63-3.93,2.45-6.42,2.45h-0.7
		c-5.52,0-10.72,1.07-15.58,3.21c-4.86,2.14-9.12,5.04-12.78,8.69c-3.66,3.66-6.55,7.97-8.69,12.95
		c-2.14,4.98-3.21,10.27-3.21,15.87v43.06c0,2.41-0.84,4.47-2.51,6.18c-1.67,1.71-3.75,2.57-6.24,2.57c-2.41,0-4.47-0.85-6.18-2.57
		c-1.71-1.71-2.57-3.77-2.57-6.18V74.06c0-2.49,0.86-4.59,2.57-6.3c1.71-1.71,3.81-2.57,6.3-2.57c2.49,0,4.55,0.86,6.18,2.57
		c1.63,1.71,2.45,3.81,2.45,6.3V81.88z"/>
</g>
<g>
	<g>
		<path class="st1" d="M1041.76,113.11c0,0,0.8,7.69-1.98,19.37c-5.26,23.15-20.6,42.51-41.15,53.19
			c-10.99,5.72-23.47,8.95-36.7,8.95c-44,0-79.79-35.82-79.79-79.83V35.7c0-13.42,10.88-24.3,24.3-24.3
			c13.42,0,24.3,10.88,24.3,24.3v79.09c0,17.23,13.99,31.24,31.19,31.24c17.22,0,31.23-14.01,31.23-31.24V77.7l33.72,13.04
			c0.86,0.36,1.7,0.77,2.52,1.23c3.13,1.76,5.92,4.25,8.1,7.42C1040.39,103.6,1041.76,108.38,1041.76,113.11z"/>
	</g>
	<path class="st0" d="M1041.76,42.58v-2.34c-0.03-1.07-0.15-2.14-0.31-3.21c-0.63-4.39-2.27-8.71-4.95-12.62
		c-9.37-13.66-28.03-17.13-41.69-7.77c-13.66,9.37-17.13,28.03-7.77,41.69c2.68,3.91,6.12,6.99,9.99,9.16
		c1.01,0.57,0.05-0.1,3.11,1.51c40.1,13.8,41.61,21.91,41.61,21.91V42.58z"/>
	<g>
		<g>
			<path class="st2" d="M1006.64,43.9c0,1.89-1.53,3.43-3.43,3.43s-3.43-1.53-3.43-3.43c0-1.89,1.53-3.43,3.43-3.43
				S1006.64,42.01,1006.64,43.9z"/>
			<path class="st2" d="M1016.59,43.9c0,1.89-1.53,3.43-3.43,3.43c-1.89,0-3.43-1.53-3.43-3.43c0-1.89,1.53-3.43,3.43-3.43
				C1015.06,40.48,1016.59,42.01,1016.59,43.9z"/>
			<path class="st2" d="M1026.55,43.9c0,1.89-1.53,3.43-3.43,3.43c-1.89,0-3.43-1.53-3.43-3.43c0-1.89,1.53-3.43,3.43-3.43
				C1025.01,40.48,1026.55,42.01,1026.55,43.9z"/>
		</g>
	</g>
</g>
<g>
	<path class="st3" d="M21.16,218.12c-0.31-0.75-0.31-1.5,0-2.24c0.31-0.74,0.84-1.27,1.6-1.58c0.75-0.29,1.5-0.28,2.24,0.02
		s1.28,0.83,1.62,1.58l16.26,37.86l7.56-17.43l-7.84-18.21c-0.34-0.75-0.34-1.5-0.02-2.24c0.33-0.74,0.86-1.27,1.62-1.58
		c0.75-0.29,1.5-0.28,2.22,0.02s1.26,0.83,1.6,1.58l5.62,13.02l5.65-13.06c0.31-0.73,0.83-1.25,1.56-1.56
		c0.73-0.31,1.47-0.31,2.22,0c0.75,0.31,1.29,0.84,1.6,1.58c0.31,0.74,0.3,1.49-0.04,2.24l-7.84,18.17l7.53,17.47l16.38-37.9
		c0.31-0.73,0.84-1.25,1.58-1.56c0.74-0.31,1.49-0.31,2.24,0c0.73,0.31,1.25,0.84,1.58,1.58c0.32,0.74,0.32,1.49-0.02,2.24
		l-18.99,43.98c-0.29,0.73-0.76,1.24-1.42,1.54s-1.35,0.37-2.05,0.21c-0.44-0.1-0.85-0.3-1.21-0.58c-0.36-0.29-0.65-0.68-0.86-1.17
		l-7.95-18.4l-7.92,18.4c-0.31,0.7-0.79,1.21-1.44,1.52s-1.31,0.39-1.99,0.23c-0.44-0.08-0.85-0.27-1.23-0.57
		c-0.38-0.3-0.67-0.69-0.88-1.19L21.16,218.12z"/>
	<path class="st3" d="M89.98,248.46c0.23,1.46,0.71,2.81,1.42,4.07c0.71,1.26,1.61,2.35,2.69,3.28c1.08,0.92,2.3,1.64,3.67,2.16
		c1.37,0.52,2.81,0.78,4.35,0.78c1.92,0,3.64-0.35,5.15-1.05c1.51-0.7,2.74-1.64,3.7-2.81c0.52-0.42,1.03-0.66,1.52-0.72
		c0.49-0.06,0.96-0.03,1.4,0.1c0.57,0.23,1.03,0.64,1.36,1.21c0.39,0.55,0.57,1.19,0.55,1.93c-0.03,0.74-0.38,1.41-1.05,2.01
		c-0.68,0.7-1.44,1.35-2.28,1.95s-1.79,1.12-2.83,1.56c-1.04,0.44-2.18,0.79-3.43,1.05c-1.25,0.26-2.61,0.39-4.09,0.39
		c-2.57,0-4.99-0.48-7.25-1.44c-2.26-0.96-4.24-2.28-5.93-3.96c-1.69-1.68-3.02-3.65-4-5.91c-0.97-2.26-1.46-4.68-1.46-7.25
		c0-2.57,0.49-4.99,1.46-7.25s2.31-4.23,4-5.91c1.69-1.68,3.67-3,5.93-3.98c2.26-0.97,4.68-1.46,7.25-1.46
		c2.55,0,4.95,0.48,7.21,1.44c2.26,0.96,4.23,2.28,5.91,3.96s3.01,3.63,4,5.87c0.99,2.24,1.49,4.63,1.52,7.17
		c0,0.83-0.27,1.51-0.8,2.03c-0.53,0.52-1.23,0.78-2.09,0.78H89.98z M114.74,243.55c-0.21-1.51-0.68-2.92-1.42-4.23
		c-0.74-1.31-1.66-2.45-2.77-3.41c-1.11-0.96-2.37-1.72-3.8-2.26c-1.43-0.55-2.95-0.82-4.56-0.82s-3.13,0.28-4.54,0.84
		c-1.42,0.56-2.67,1.32-3.76,2.28c-1.09,0.96-2,2.1-2.71,3.41c-0.72,1.31-1.18,2.71-1.38,4.19H114.74z"/>
	<path class="st3" d="M132.21,261.05c0,0.81-0.29,1.49-0.86,2.05c-0.57,0.56-1.26,0.84-2.07,0.84s-1.5-0.28-2.07-0.84
		c-0.57-0.56-0.86-1.24-0.86-2.05v-44.14c0-0.83,0.29-1.52,0.86-2.07c0.57-0.55,1.26-0.82,2.07-0.82s1.5,0.27,2.07,0.82
		c0.57,0.55,0.86,1.23,0.86,2.07V261.05z"/>
	<path class="st3" d="M145.94,261.05c0,0.81-0.29,1.49-0.86,2.05c-0.57,0.56-1.26,0.84-2.07,0.84s-1.5-0.28-2.07-0.84
		c-0.57-0.56-0.86-1.24-0.86-2.05v-44.14c0-0.83,0.29-1.52,0.86-2.07c0.57-0.55,1.26-0.82,2.07-0.82s1.5,0.27,2.07,0.82
		c0.57,0.55,0.86,1.23,0.86,2.07V261.05z"/>
	<path class="st3" d="M185.12,263.16c-0.57,0.55-1.27,0.82-2.11,0.82c-0.81,0-1.49-0.27-2.05-0.82c-0.56-0.55-0.84-1.23-0.84-2.07
		v-15.83c0-1.92-0.22-3.64-0.66-5.15c-0.44-1.51-1.08-2.79-1.91-3.84c-0.83-1.05-1.85-1.85-3.06-2.4c-1.21-0.55-2.57-0.82-4.07-0.82
		c-1.48,0-2.87,0.29-4.15,0.88c-1.29,0.58-2.41,1.39-3.37,2.42c-0.96,1.03-1.74,2.24-2.32,3.63s-0.9,2.89-0.96,4.5v16.53
		c0,0.81-0.28,1.5-0.84,2.07c-0.56,0.57-1.24,0.86-2.05,0.86s-1.5-0.29-2.09-0.86c-0.58-0.57-0.88-1.26-0.88-2.07v-30.88
		c0-0.83,0.29-1.53,0.86-2.11c0.57-0.57,1.27-0.86,2.11-0.86s1.52,0.29,2.07,0.86s0.82,1.27,0.82,2.11v2.92
		c1.51-1.79,3.24-3.22,5.21-4.27s4.05-1.58,6.26-1.58c2.26,0,4.3,0.43,6.12,1.29s3.38,2.07,4.68,3.65c1.3,1.57,2.31,3.46,3.02,5.65
		c0.71,2.2,1.07,4.63,1.07,7.31v15.99C185.98,261.92,185.69,262.61,185.12,263.16z"/>
	<path class="st3" d="M197.68,248.46c0.23,1.46,0.71,2.81,1.42,4.07c0.71,1.26,1.61,2.35,2.69,3.28c1.08,0.92,2.3,1.64,3.67,2.16
		c1.37,0.52,2.81,0.78,4.35,0.78c1.92,0,3.64-0.35,5.15-1.05c1.51-0.7,2.74-1.64,3.7-2.81c0.52-0.42,1.03-0.66,1.52-0.72
		c0.49-0.06,0.96-0.03,1.4,0.1c0.57,0.23,1.03,0.64,1.36,1.21c0.39,0.55,0.57,1.19,0.55,1.93c-0.03,0.74-0.38,1.41-1.05,2.01
		c-0.68,0.7-1.44,1.35-2.28,1.95s-1.79,1.12-2.83,1.56c-1.04,0.44-2.18,0.79-3.43,1.05c-1.25,0.26-2.61,0.39-4.09,0.39
		c-2.57,0-4.99-0.48-7.25-1.44c-2.26-0.96-4.24-2.28-5.93-3.96c-1.69-1.68-3.02-3.65-4-5.91c-0.97-2.26-1.46-4.68-1.46-7.25
		c0-2.57,0.49-4.99,1.46-7.25s2.31-4.23,4-5.91c1.69-1.68,3.67-3,5.93-3.98c2.26-0.97,4.68-1.46,7.25-1.46
		c2.55,0,4.95,0.48,7.21,1.44c2.26,0.96,4.23,2.28,5.91,3.96s3.01,3.63,4,5.87c0.99,2.24,1.49,4.63,1.52,7.17
		c0,0.83-0.27,1.51-0.8,2.03c-0.53,0.52-1.23,0.78-2.09,0.78H197.68z M222.44,243.55c-0.21-1.51-0.68-2.92-1.42-4.23
		c-0.74-1.31-1.66-2.45-2.77-3.41c-1.11-0.96-2.37-1.72-3.8-2.26c-1.43-0.55-2.95-0.82-4.56-0.82s-3.13,0.28-4.54,0.84
		c-1.42,0.56-2.67,1.32-3.76,2.28c-1.09,0.96-2,2.1-2.71,3.41c-0.72,1.31-1.18,2.71-1.38,4.19H222.44z"/>
	<path class="st3" d="M239.89,246.18c-1.39-0.58-2.63-1.29-3.7-2.11c-1.08-0.82-1.95-1.77-2.61-2.87c-0.66-1.09-1-2.39-1-3.9
		c0-1.61,0.35-3.05,1.05-4.31c0.7-1.26,1.63-2.33,2.79-3.2c1.16-0.87,2.48-1.53,3.96-1.99c1.48-0.45,3-0.68,4.56-0.68
		c1.12,0,2.24,0.11,3.35,0.33c1.12,0.22,2.17,0.55,3.16,0.99c0.99,0.44,1.88,1,2.67,1.68c0.79,0.68,1.42,1.46,1.89,2.34
		c0.29,0.6,0.39,1.14,0.31,1.64c-0.08,0.49-0.29,0.92-0.62,1.29c-0.36,0.39-0.82,0.66-1.37,0.8c-0.55,0.14-1.08,0.08-1.6-0.18
		c-1.09-1.12-2.2-2.01-3.33-2.69c-1.13-0.68-2.49-1.01-4.07-1.01c-0.86,0-1.7,0.08-2.51,0.25c-0.82,0.17-1.55,0.45-2.18,0.84
		c-0.64,0.39-1.15,0.89-1.54,1.5c-0.39,0.61-0.58,1.35-0.58,2.2c0,0.83,0.19,1.54,0.57,2.12c0.38,0.58,0.9,1.09,1.56,1.52
		c0.66,0.43,1.43,0.81,2.3,1.13s1.81,0.64,2.83,0.96c1.64,0.52,3.19,1.07,4.66,1.64c1.47,0.57,2.76,1.27,3.88,2.09
		c1.12,0.82,2.01,1.79,2.67,2.92c0.66,1.13,1,2.52,1,4.15c0,1.53-0.33,2.95-0.98,4.25c-0.65,1.3-1.55,2.43-2.71,3.39
		c-1.16,0.96-2.51,1.72-4.07,2.26s-3.24,0.82-5.03,0.82c-1.3,0-2.6-0.13-3.9-0.39c-1.3-0.26-2.52-0.66-3.67-1.19
		c-1.14-0.53-2.19-1.2-3.14-2.01c-0.95-0.81-1.71-1.77-2.28-2.89c-0.47-0.86-0.59-1.62-0.37-2.3c0.22-0.68,0.62-1.18,1.19-1.52
		c0.57-0.34,1.24-0.45,2.01-0.33c0.77,0.12,1.46,0.57,2.09,1.35c0.88,1.43,1.97,2.47,3.26,3.12c1.29,0.65,2.89,0.98,4.82,0.98
		c0.91,0,1.79-0.12,2.63-0.37c0.84-0.25,1.6-0.6,2.26-1.05c0.66-0.45,1.2-1.01,1.6-1.66c0.4-0.65,0.6-1.39,0.6-2.22
		c0-0.91-0.23-1.68-0.7-2.32c-0.47-0.64-1.08-1.19-1.85-1.66c-0.77-0.47-1.63-0.86-2.59-1.19c-0.96-0.32-1.94-0.63-2.92-0.92
		C242.71,247.3,241.28,246.76,239.89,246.18z"/>
	<path class="st3" d="M269.64,246.18c-1.39-0.58-2.63-1.29-3.7-2.11c-1.08-0.82-1.95-1.77-2.61-2.87c-0.66-1.09-1-2.39-1-3.9
		c0-1.61,0.35-3.05,1.05-4.31c0.7-1.26,1.63-2.33,2.79-3.2c1.16-0.87,2.48-1.53,3.96-1.99c1.48-0.45,3-0.68,4.56-0.68
		c1.12,0,2.24,0.11,3.35,0.33c1.12,0.22,2.17,0.55,3.16,0.99c0.99,0.44,1.88,1,2.67,1.68c0.79,0.68,1.42,1.46,1.89,2.34
		c0.29,0.6,0.39,1.14,0.31,1.64c-0.08,0.49-0.29,0.92-0.62,1.29c-0.36,0.39-0.82,0.66-1.37,0.8c-0.55,0.14-1.08,0.08-1.6-0.18
		c-1.09-1.12-2.2-2.01-3.33-2.69c-1.13-0.68-2.49-1.01-4.07-1.01c-0.86,0-1.7,0.08-2.51,0.25c-0.82,0.17-1.55,0.45-2.18,0.84
		c-0.64,0.39-1.15,0.89-1.54,1.5c-0.39,0.61-0.58,1.35-0.58,2.2c0,0.83,0.19,1.54,0.57,2.12c0.38,0.58,0.9,1.09,1.56,1.52
		c0.66,0.43,1.43,0.81,2.3,1.13s1.81,0.64,2.83,0.96c1.64,0.52,3.19,1.07,4.66,1.64c1.47,0.57,2.76,1.27,3.88,2.09
		c1.12,0.82,2.01,1.79,2.67,2.92c0.66,1.13,1,2.52,1,4.15c0,1.53-0.33,2.95-0.98,4.25c-0.65,1.3-1.55,2.43-2.71,3.39
		c-1.16,0.96-2.51,1.72-4.07,2.26s-3.24,0.82-5.03,0.82c-1.3,0-2.6-0.13-3.9-0.39c-1.3-0.26-2.52-0.66-3.67-1.19
		c-1.14-0.53-2.19-1.2-3.14-2.01c-0.95-0.81-1.71-1.77-2.28-2.89c-0.47-0.86-0.59-1.62-0.37-2.3c0.22-0.68,0.62-1.18,1.19-1.52
		c0.57-0.34,1.24-0.45,2.01-0.33c0.77,0.12,1.46,0.57,2.09,1.35c0.88,1.43,1.97,2.47,3.26,3.12c1.29,0.65,2.89,0.98,4.82,0.98
		c0.91,0,1.79-0.12,2.63-0.37c0.84-0.25,1.6-0.6,2.26-1.05c0.66-0.45,1.2-1.01,1.6-1.66c0.4-0.65,0.6-1.39,0.6-2.22
		c0-0.91-0.23-1.68-0.7-2.32c-0.47-0.64-1.08-1.19-1.85-1.66c-0.77-0.47-1.63-0.86-2.59-1.19c-0.96-0.32-1.94-0.63-2.92-0.92
		C272.46,247.3,271.03,246.76,269.64,246.18z"/>
	<path class="st3" d="M310.3,238.56c0.97-2.26,2.31-4.23,4-5.91c1.69-1.68,3.67-3,5.93-3.98c2.26-0.97,4.67-1.46,7.21-1.46
		c2.57,0,4.98,0.49,7.23,1.46c2.25,0.98,4.21,2.3,5.89,3.98s3,3.65,3.98,5.91s1.46,4.68,1.46,7.25c0,2.57-0.49,4.98-1.46,7.23
		c-0.97,2.25-2.3,4.22-3.98,5.91c-1.68,1.69-3.64,3.02-5.89,4c-2.25,0.97-4.66,1.46-7.23,1.46c-2.55,0-4.95-0.49-7.21-1.46
		c-2.26-0.98-4.24-2.31-5.93-4c-1.69-1.69-3.02-3.66-4-5.91c-0.97-2.25-1.46-4.66-1.46-7.23
		C308.84,243.23,309.33,240.82,310.3,238.56z M315.72,250.72c0.66,1.53,1.57,2.88,2.71,4.04c1.14,1.16,2.49,2.07,4.04,2.75
		c1.55,0.68,3.2,1.01,4.97,1.01c1.79,0,3.46-0.34,5.01-1.01c1.55-0.68,2.89-1.59,4.04-2.75c1.14-1.16,2.04-2.5,2.69-4.04
		c0.65-1.53,0.97-3.17,0.97-4.91c0-1.77-0.33-3.42-0.97-4.97c-0.65-1.55-1.55-2.89-2.69-4.04c-1.14-1.14-2.49-2.05-4.04-2.71
		c-1.55-0.66-3.22-0.99-5.01-0.99c-1.77,0-3.43,0.33-4.97,0.99c-1.55,0.66-2.89,1.57-4.04,2.71c-1.14,1.14-2.05,2.49-2.71,4.04
		c-0.66,1.55-0.99,3.2-0.99,4.97C314.73,247.55,315.06,249.19,315.72,250.72z"/>
	<path class="st3" d="M357.42,232.32c1.66-1.59,3.59-2.83,5.77-3.74c2.18-0.91,4.51-1.36,6.98-1.36c2.57,0,4.98,0.49,7.23,1.46
		c2.25,0.98,4.21,2.3,5.89,3.98s3,3.65,3.98,5.91s1.46,4.68,1.46,7.25c0,2.57-0.49,4.98-1.46,7.23c-0.97,2.25-2.3,4.22-3.98,5.91
		c-1.68,1.69-3.64,3.02-5.89,4c-2.25,0.97-4.66,1.46-7.23,1.46c-2.47,0-4.8-0.45-6.98-1.35c-2.18-0.9-4.11-2.14-5.77-3.72v14.9
		c0,0.81-0.29,1.49-0.86,2.05c-0.57,0.56-1.26,0.84-2.07,0.84s-1.5-0.28-2.07-0.84c-0.57-0.56-0.86-1.24-0.86-2.05v-44.14
		c0-0.83,0.29-1.52,0.86-2.07c0.57-0.55,1.26-0.82,2.07-0.82s1.5,0.27,2.07,0.82c0.57,0.55,0.86,1.23,0.86,2.07V232.32z
		 M358.46,250.72c0.66,1.53,1.57,2.88,2.71,4.04c1.14,1.16,2.49,2.07,4.04,2.75c1.55,0.68,3.2,1.01,4.97,1.01
		c1.79,0,3.46-0.34,5.01-1.01c1.55-0.68,2.89-1.59,4.04-2.75c1.14-1.16,2.04-2.5,2.69-4.04c0.65-1.53,0.97-3.17,0.97-4.91
		c0-1.77-0.33-3.42-0.97-4.97c-0.65-1.55-1.55-2.89-2.69-4.04c-1.14-1.14-2.49-2.05-4.04-2.71c-1.55-0.66-3.22-0.99-5.01-0.99
		c-1.77,0-3.42,0.33-4.97,0.99c-1.55,0.66-2.89,1.57-4.04,2.71c-1.14,1.14-2.05,2.49-2.71,4.04c-0.66,1.55-0.99,3.2-0.99,4.97
		C357.46,247.55,357.79,249.19,358.46,250.72z"/>
	<path class="st3" d="M403.55,227.25h4.56c0.83,0,1.53,0.28,2.09,0.84s0.84,1.25,0.84,2.09c0,0.83-0.28,1.53-0.84,2.09
		c-0.56,0.56-1.25,0.84-2.09,0.84h-4.56v27.96c0,0.81-0.29,1.49-0.86,2.05c-0.57,0.56-1.26,0.84-2.07,0.84
		c-0.83,0-1.53-0.28-2.11-0.84c-0.57-0.56-0.86-1.24-0.86-2.05V233.1h-3.74c-0.83,0-1.53-0.29-2.11-0.86
		c-0.57-0.57-0.86-1.26-0.86-2.07c0-0.83,0.29-1.53,0.86-2.09c0.57-0.56,1.27-0.84,2.11-0.84h3.74v-10.33
		c0-0.83,0.29-1.52,0.86-2.07c0.57-0.55,1.27-0.82,2.11-0.82c0.81,0,1.49,0.27,2.07,0.82c0.57,0.55,0.86,1.23,0.86,2.07V227.25z"/>
	<path class="st3" d="M416.09,216.35c0.66-0.66,1.47-0.99,2.44-0.99s1.77,0.33,2.44,0.99s0.99,1.48,0.99,2.44
		c0,0.94-0.33,1.74-0.99,2.42c-0.66,0.68-1.48,1.01-2.44,1.01s-1.77-0.34-2.44-1.01c-0.66-0.68-0.99-1.48-0.99-2.42
		C415.09,217.82,415.42,217.01,416.09,216.35z M421.45,261.01c0,0.81-0.28,1.5-0.84,2.07c-0.56,0.57-1.24,0.86-2.05,0.86
		s-1.5-0.29-2.09-0.86c-0.58-0.57-0.88-1.26-0.88-2.07v-30.88c0-0.83,0.29-1.53,0.86-2.11c0.57-0.57,1.27-0.86,2.11-0.86
		s1.52,0.29,2.07,0.86s0.82,1.27,0.82,2.11V261.01z"/>
	<path class="st3" d="M476.95,263.1c-0.56,0.56-1.23,0.84-2.01,0.84c-0.81,0-1.51-0.28-2.11-0.84c-0.6-0.56-0.9-1.24-0.9-2.05
		v-20.78c-0.03-1.04-0.23-2-0.63-2.87c-0.39-0.87-0.92-1.63-1.58-2.28s-1.43-1.16-2.31-1.52c-0.87-0.36-1.82-0.55-2.83-0.55
		c-1.04,0-2.05,0.19-3.03,0.58s-1.85,0.92-2.62,1.6c-0.77,0.68-1.38,1.46-1.84,2.36c-0.46,0.9-0.7,1.84-0.72,2.83v20.63
		c0,0.81-0.29,1.49-0.85,2.05c-0.57,0.56-1.24,0.84-2.01,0.84c-0.8,0-1.5-0.28-2.09-0.84c-0.59-0.56-0.89-1.24-0.89-2.05v-20.82
		c-0.05-1.01-0.27-1.96-0.64-2.85c-0.38-0.88-0.89-1.64-1.54-2.28c-0.65-0.64-1.41-1.14-2.28-1.5c-0.87-0.36-1.81-0.55-2.83-0.55
		s-2,0.19-2.96,0.57c-0.96,0.38-1.83,0.89-2.59,1.54c-0.77,0.65-1.38,1.41-1.85,2.28c-0.47,0.87-0.73,1.8-0.78,2.79v20.78
		c0,0.81-0.28,1.5-0.84,2.07c-0.56,0.57-1.24,0.86-2.05,0.86s-1.5-0.29-2.09-0.86c-0.58-0.57-0.88-1.26-0.88-2.06v-30.85
		c0-0.83,0.29-1.53,0.86-2.1c0.57-0.57,1.27-0.86,2.11-0.86s1.52,0.28,2.07,0.85c0.55,0.57,0.82,1.27,0.82,2.09v1.12
		c1.12-1.24,2.4-2.23,3.84-2.96c1.44-0.74,3.02-1.1,4.74-1.1c2.18,0,4.14,0.47,5.87,1.4c1.73,0.94,3.17,2.2,4.31,3.78
		c1.4-1.59,3.11-2.85,5.11-3.78c2-0.94,4.07-1.4,6.2-1.4c1.82,0,3.5,0.34,5.03,1.03c1.53,0.69,2.86,1.62,3.98,2.8
		c1.12,1.18,1.99,2.56,2.63,4.15c0.64,1.58,0.98,3.27,1.03,5.06v20.8C477.79,261.86,477.51,262.54,476.95,263.1z"/>
	<path class="st3" d="M485.57,216.35c0.66-0.66,1.47-0.99,2.44-0.99s1.77,0.33,2.44,0.99s0.99,1.48,0.99,2.44
		c0,0.94-0.33,1.74-0.99,2.42c-0.66,0.68-1.48,1.01-2.44,1.01s-1.77-0.34-2.44-1.01c-0.66-0.68-0.99-1.48-0.99-2.42
		C484.58,217.82,484.91,217.01,485.57,216.35z M490.93,261.01c0,0.81-0.28,1.5-0.84,2.07c-0.56,0.57-1.24,0.86-2.05,0.86
		s-1.5-0.29-2.09-0.86c-0.58-0.57-0.88-1.26-0.88-2.07v-30.88c0-0.83,0.29-1.53,0.86-2.11c0.57-0.57,1.27-0.86,2.11-0.86
		s1.52,0.29,2.07,0.86s0.82,1.27,0.82,2.11V261.01z"/>
	<path class="st3" d="M528.25,227.21c0.29,0,0.55,0.04,0.78,0.12c0.1,0.03,0.26,0.09,0.47,0.2l0.35,0.19l0.39,0.31
		c0.39,0.36,0.65,0.79,0.78,1.27c0.13,0.48,0.13,0.96,0,1.42c0,0.08-0.01,0.13-0.04,0.16v0.12c-0.08,0.23-0.21,0.49-0.39,0.78
		c-0.05,0.08-0.11,0.16-0.18,0.23c-0.07,0.08-0.12,0.14-0.18,0.19l-24.68,26.05h23.4c0.83,0,1.53,0.26,2.11,0.78
		c0.57,0.52,0.86,1.18,0.86,1.99c0,0.83-0.29,1.53-0.86,2.09c-0.57,0.56-1.27,0.84-2.11,0.84h-29.52c-0.55,0-1.03-0.13-1.46-0.39
		c-0.43-0.26-0.77-0.61-1.03-1.05c-0.36-0.52-0.51-1.1-0.43-1.75c0.08-0.65,0.36-1.23,0.86-1.75l24.64-26.01h-22.23
		c-0.83,0-1.53-0.28-2.09-0.84c-0.56-0.56-0.84-1.24-0.84-2.05c0-0.83,0.28-1.52,0.84-2.07c0.56-0.55,1.25-0.82,2.09-0.82H528.25z"
		/>
	<path class="st3" d="M540.22,248.46c0.23,1.46,0.71,2.81,1.42,4.07c0.71,1.26,1.61,2.35,2.69,3.28c1.08,0.92,2.3,1.64,3.67,2.16
		c1.37,0.52,2.81,0.78,4.35,0.78c1.92,0,3.64-0.35,5.15-1.05c1.51-0.7,2.74-1.64,3.7-2.81c0.52-0.42,1.03-0.66,1.52-0.72
		c0.49-0.06,0.96-0.03,1.4,0.1c0.57,0.23,1.03,0.64,1.36,1.21c0.39,0.55,0.57,1.19,0.55,1.93c-0.03,0.74-0.38,1.41-1.05,2.01
		c-0.68,0.7-1.44,1.35-2.28,1.95s-1.79,1.12-2.83,1.56c-1.04,0.44-2.18,0.79-3.43,1.05c-1.25,0.26-2.61,0.39-4.09,0.39
		c-2.57,0-4.99-0.48-7.25-1.44c-2.26-0.96-4.24-2.28-5.93-3.96c-1.69-1.68-3.02-3.65-4-5.91c-0.97-2.26-1.46-4.68-1.46-7.25
		c0-2.57,0.49-4.99,1.46-7.25s2.31-4.23,4-5.91c1.69-1.68,3.67-3,5.93-3.98c2.26-0.97,4.68-1.46,7.25-1.46
		c2.55,0,4.95,0.48,7.21,1.44c2.26,0.96,4.23,2.28,5.91,3.96s3.01,3.63,4,5.87c0.99,2.24,1.49,4.63,1.52,7.17
		c0,0.83-0.27,1.51-0.8,2.03c-0.53,0.52-1.23,0.78-2.09,0.78H540.22z M564.98,243.55c-0.21-1.51-0.68-2.92-1.42-4.23
		c-0.74-1.31-1.66-2.45-2.77-3.41c-1.11-0.96-2.37-1.72-3.8-2.26c-1.43-0.55-2.95-0.82-4.56-0.82s-3.13,0.28-4.54,0.84
		c-1.42,0.56-2.67,1.32-3.76,2.28c-1.09,0.96-2,2.1-2.71,3.41c-0.72,1.31-1.18,2.71-1.38,4.19H564.98z"/>
	<path class="st3" d="M611.5,261.05c0,0.81-0.29,1.49-0.86,2.05c-0.57,0.56-1.26,0.84-2.07,0.84c-0.83,0-1.53-0.28-2.09-0.84
		c-0.56-0.56-0.84-1.24-0.84-2.05v-1.72c-1.66,1.56-3.58,2.79-5.75,3.68c-2.17,0.9-4.49,1.35-6.96,1.35c-2.55,0-4.95-0.49-7.21-1.46
		c-2.26-0.98-4.24-2.3-5.93-3.98c-1.69-1.68-3.02-3.65-4-5.91c-0.97-2.26-1.46-4.67-1.46-7.21c0-2.57,0.49-4.99,1.46-7.25
		s2.31-4.23,4-5.91c1.69-1.68,3.67-3,5.93-3.98c2.26-0.97,4.67-1.46,7.21-1.46c2.47,0,4.79,0.45,6.96,1.35
		c2.17,0.9,4.09,2.12,5.75,3.68v-15.32c0-0.83,0.28-1.52,0.84-2.07c0.56-0.55,1.25-0.82,2.09-0.82c0.8,0,1.49,0.27,2.07,0.82
		c0.57,0.55,0.86,1.23,0.86,2.07V261.05z M581.22,250.72c0.66,1.53,1.57,2.88,2.71,4.04c1.14,1.16,2.49,2.07,4.04,2.73
		c1.55,0.66,3.2,0.99,4.97,0.99c1.79,0,3.46-0.33,5.01-0.99c1.55-0.66,2.89-1.57,4.04-2.73c1.14-1.16,2.04-2.5,2.69-4.04
		c0.65-1.53,0.97-3.17,0.97-4.91c0-1.77-0.33-3.42-0.97-4.97c-0.65-1.55-1.55-2.89-2.69-4.04c-1.14-1.14-2.49-2.04-4.04-2.69
		c-1.55-0.65-3.22-0.97-5.01-0.97c-1.77,0-3.43,0.33-4.97,0.97c-1.55,0.65-2.89,1.55-4.04,2.69c-1.14,1.14-2.05,2.49-2.71,4.04
		c-0.66,1.55-0.99,3.2-0.99,4.97C580.22,247.55,580.55,249.19,581.22,250.72z"/>
</g>
</svg>
