<?xml version="1.0" encoding="utf-8"?>
<!-- Generator: Adobe Illustrator 24.1.0, SVG Export Plug-In . SVG Version: 6.00 Build 0)  -->
<svg version="1.1" id="Layer_1" xmlns="http://www.w3.org/2000/svg" xmlns:xlink="http://www.w3.org/1999/xlink" x="0px" y="0px"
	 viewBox="0 0 1638.99 1071.24" style="enable-background:new 0 0 1638.99 1071.24;" xml:space="preserve">
<style type="text/css">
	.st0{fill:#5ECCC8;}
	.st1{fill:#F4CDB6;}
	.st2{fill:#FFFFFF;}
</style>
<rect class="st0" width="1638.99" height="1071.24"/>
<g>
	<g>
		<path class="st2" d="M326.12,495.03H398V437.5c0-2.41,0.88-4.45,2.62-6.13c1.75-1.67,3.83-2.51,6.24-2.51
			c2.41,0,4.45,0.84,6.13,2.51c1.67,1.67,2.51,3.72,2.51,6.13V569.6c0,2.41-0.86,4.45-2.57,6.13c-1.71,1.67-3.77,2.51-6.18,2.51
			c-2.49,0-4.57-0.83-6.24-2.51c-1.67-1.67-2.51-3.71-2.51-6.13v-57.06h-71.88v57.06c0,2.41-0.86,4.45-2.57,6.13
			c-1.71,1.67-3.77,2.51-6.18,2.51c-2.41,0-4.47-0.83-6.18-2.51c-1.71-1.67-2.57-3.71-2.57-6.13V437.5c0-2.41,0.85-4.45,2.57-6.13
			c1.71-1.67,3.77-2.51,6.18-2.51c2.41,0,4.47,0.84,6.18,2.51c1.71,1.67,2.57,3.72,2.57,6.13V495.03z"/>
		<path class="st2" d="M455.29,531.9c0.7,4.36,2.12,8.42,4.26,12.19c2.14,3.77,4.82,7.04,8.05,9.8c3.23,2.76,6.88,4.92,10.97,6.48
			c4.08,1.56,8.42,2.33,13.01,2.33c5.76,0,10.89-1.05,15.4-3.15c4.51-2.1,8.21-4.9,11.08-8.4c1.56-1.24,3.07-1.96,4.55-2.16
			c1.48-0.19,2.88-0.1,4.2,0.29c1.71,0.7,3.07,1.91,4.08,3.62c1.17,1.63,1.71,3.56,1.63,5.78c-0.08,2.22-1.13,4.22-3.15,6.01
			c-2.02,2.1-4.3,4.05-6.83,5.83c-2.53,1.79-5.35,3.35-8.46,4.67c-3.11,1.32-6.53,2.37-10.27,3.15c-3.73,0.78-7.82,1.17-12.25,1.17
			c-7.7,0-14.94-1.44-21.7-4.32c-6.77-2.88-12.68-6.83-17.74-11.84c-5.06-5.02-9.04-10.91-11.96-17.68s-4.38-14-4.38-21.7
			c0-7.7,1.46-14.94,4.38-21.7c2.92-6.77,6.9-12.66,11.96-17.68c5.06-5.02,10.97-8.98,17.74-11.9c6.77-2.92,14-4.38,21.7-4.38
			c7.62,0,14.82,1.44,21.59,4.32c6.77,2.88,12.66,6.83,17.68,11.84c5.02,5.02,9,10.87,11.96,17.56c2.96,6.69,4.47,13.85,4.55,21.47
			c0,2.49-0.8,4.51-2.39,6.07c-1.59,1.56-3.67,2.33-6.24,2.33H455.29z M529.39,517.2c-0.62-4.51-2.04-8.73-4.26-12.66
			c-2.22-3.93-4.98-7.33-8.29-10.21c-3.31-2.88-7.1-5.13-11.38-6.77c-4.28-1.63-8.83-2.45-13.65-2.45c-4.82,0-9.36,0.84-13.59,2.51
			c-4.24,1.67-7.99,3.95-11.26,6.83c-3.27,2.88-5.97,6.28-8.11,10.21c-2.14,3.93-3.52,8.11-4.14,12.54H529.39z"/>
		<path class="st2" d="M557.39,524.03c0-7.69,1.46-14.92,4.38-21.68s6.9-12.65,11.96-17.66c5.06-5.01,10.97-8.98,17.74-11.89
			s13.96-4.37,21.59-4.37c7.62,0,14.78,1.44,21.47,4.31c6.69,2.88,12.54,6.78,17.56,11.71c5.02,4.93,8.98,10.74,11.9,17.43
			c2.92,6.68,4.45,13.83,4.61,21.45v45.81c0,2.49-0.86,4.63-2.57,6.41c-1.71,1.79-3.85,2.68-6.42,2.68c-2.49,0-4.53-0.89-6.13-2.66
			c-1.6-1.78-2.39-3.9-2.39-6.37l-0.12-5.79c-4.98,4.87-10.7,8.79-17.15,11.77c-6.46,2.98-13.38,4.46-20.77,4.46
			c-7.62,0-14.82-1.46-21.59-4.37s-12.68-6.9-17.74-11.95c-5.06-5.05-9.04-10.94-11.96-17.66S557.39,531.72,557.39,524.03z
			 M574.89,524.03c0,5.22,0.99,10.13,2.98,14.73c1.99,4.6,4.7,8.63,8.12,12.1s7.46,6.21,12.1,8.24s9.6,3.04,14.9,3.04
			c5.38,0,10.38-1.01,15.02-3.04s8.67-4.77,12.09-8.24s6.12-7.5,8.06-12.1c1.95-4.6,2.92-9.5,2.92-14.73c0-5.3-0.98-10.26-2.92-14.9
			s-4.64-8.67-8.06-12.1s-7.46-6.14-12.09-8.12s-9.64-2.98-15.02-2.98c-5.3,0-10.27,0.99-14.9,2.98s-8.67,4.69-12.1,8.12
			s-6.14,7.46-8.12,12.1S574.89,518.73,574.89,524.03z"/>
		<path class="st2" d="M709.43,569.6c0,2.41-0.86,4.45-2.57,6.13c-1.71,1.67-3.77,2.51-6.18,2.51c-2.41,0-4.47-0.83-6.18-2.51
			c-1.71-1.67-2.57-3.71-2.57-6.13V437.5c0-2.49,0.86-4.55,2.57-6.18c1.71-1.63,3.77-2.45,6.18-2.45c2.41,0,4.47,0.82,6.18,2.45
			c1.71,1.63,2.57,3.7,2.57,6.18V569.6z"/>
		<path class="st2" d="M760.66,468.43h13.65c2.49,0,4.57,0.84,6.24,2.51c1.67,1.67,2.51,3.75,2.51,6.24c0,2.49-0.84,4.57-2.51,6.24
			c-1.67,1.67-3.75,2.51-6.24,2.51h-13.65v83.67c0,2.41-0.86,4.45-2.57,6.13c-1.71,1.67-3.77,2.51-6.18,2.51
			c-2.49,0-4.59-0.83-6.3-2.51c-1.71-1.67-2.57-3.71-2.57-6.13v-83.67h-11.2c-2.49,0-4.59-0.86-6.3-2.57
			c-1.71-1.71-2.57-3.77-2.57-6.18c0-2.49,0.86-4.57,2.57-6.24c1.71-1.67,3.81-2.51,6.3-2.51h11.2V437.5c0-2.49,0.85-4.55,2.57-6.18
			c1.71-1.63,3.81-2.45,6.3-2.45c2.41,0,4.47,0.82,6.18,2.45c1.71,1.63,2.57,3.7,2.57,6.18V468.43z"/>
		<path class="st2" d="M814.22,485.81c4.51-5.37,9.7-9.63,15.58-12.78c5.87-3.15,12.12-4.73,18.73-4.73
			c6.77,0,12.87,1.28,18.32,3.85c5.44,2.57,10.11,6.2,14,10.91c3.89,4.71,6.9,10.35,9.04,16.92c2.14,6.57,3.21,13.87,3.21,21.88
			v47.84c0,2.49-0.86,4.55-2.57,6.18c-1.71,1.63-3.81,2.45-6.3,2.45c-2.41,0-4.45-0.82-6.13-2.45c-1.67-1.63-2.51-3.69-2.51-6.18
			v-48.08c-0.08-5.6-0.78-10.62-2.1-15.05c-1.32-4.43-3.25-8.19-5.78-11.26c-2.53-3.07-5.56-5.43-9.1-7.06
			c-3.54-1.63-7.57-2.45-12.08-2.45c-4.43,0-8.58,0.88-12.43,2.63c-3.85,1.75-7.22,4.16-10.09,7.23c-2.88,3.07-5.19,6.69-6.94,10.85
			c-1.75,4.16-2.7,8.66-2.86,13.48v49.48c0,2.41-0.84,4.47-2.51,6.18c-1.67,1.71-3.72,2.57-6.13,2.57c-2.49,0-4.59-0.85-6.3-2.57
			c-1.71-1.71-2.57-3.77-2.57-6.18V437.85c0-2.49,0.88-4.61,2.62-6.36c1.75-1.75,3.83-2.63,6.24-2.63c2.41,0,4.45,0.88,6.13,2.63
			c1.67,1.75,2.51,3.87,2.51,6.36V485.81z"/>
		<path class="st2" d="M917.08,435.81c1.98-1.98,4.41-2.98,7.29-2.98c2.88,0,5.31,0.99,7.29,2.98c1.98,1.98,2.98,4.42,2.98,7.29
			c0,2.8-0.99,5.21-2.98,7.23c-1.98,2.02-4.42,3.03-7.29,3.03c-2.88,0-5.31-1.01-7.29-3.03c-1.98-2.02-2.98-4.43-2.98-7.23
			C914.1,440.23,915.09,437.8,917.08,435.81z M933.12,569.48c0,2.41-0.84,4.47-2.51,6.18c-1.67,1.71-3.72,2.57-6.13,2.57
			c-2.41,0-4.49-0.85-6.24-2.57c-1.75-1.71-2.62-3.77-2.62-6.18v-92.42c0-2.49,0.86-4.59,2.57-6.3c1.71-1.71,3.81-2.57,6.3-2.57
			c2.49,0,4.55,0.86,6.18,2.57c1.63,1.71,2.45,3.81,2.45,6.3V569.48z"/>
		<path class="st2" d="M969.18,531.9c0.7,4.36,2.12,8.42,4.26,12.19c2.14,3.77,4.82,7.04,8.05,9.8c3.23,2.76,6.88,4.92,10.97,6.48
			c4.08,1.56,8.42,2.33,13.01,2.33c5.76,0,10.89-1.05,15.4-3.15c4.51-2.1,8.21-4.9,11.08-8.4c1.56-1.24,3.07-1.96,4.55-2.16
			c1.48-0.19,2.88-0.1,4.2,0.29c1.71,0.7,3.07,1.91,4.08,3.62c1.17,1.63,1.71,3.56,1.63,5.78c-0.08,2.22-1.13,4.22-3.15,6.01
			c-2.02,2.1-4.3,4.05-6.83,5.83c-2.53,1.79-5.35,3.35-8.46,4.67c-3.11,1.32-6.53,2.37-10.27,3.15c-3.73,0.78-7.82,1.17-12.25,1.17
			c-7.7,0-14.94-1.44-21.7-4.32c-6.77-2.88-12.68-6.83-17.74-11.84c-5.06-5.02-9.04-10.91-11.96-17.68s-4.38-14-4.38-21.7
			c0-7.7,1.46-14.94,4.38-21.7c2.92-6.77,6.9-12.66,11.96-17.68c5.06-5.02,10.97-8.98,17.74-11.9c6.77-2.92,14-4.38,21.7-4.38
			c7.62,0,14.82,1.44,21.59,4.32c6.77,2.88,12.66,6.83,17.68,11.84c5.02,5.02,9,10.87,11.96,17.56c2.96,6.69,4.47,13.85,4.55,21.47
			c0,2.49-0.8,4.51-2.39,6.07c-1.59,1.56-3.67,2.33-6.24,2.33H969.18z M1043.28,517.2c-0.62-4.51-2.04-8.73-4.26-12.66
			c-2.22-3.93-4.98-7.33-8.29-10.21c-3.31-2.88-7.1-5.13-11.38-6.77c-4.28-1.63-8.83-2.45-13.65-2.45c-4.82,0-9.36,0.84-13.59,2.51
			c-4.24,1.67-7.99,3.95-11.26,6.83c-3.27,2.88-5.97,6.28-8.11,10.21c-2.14,3.93-3.52,8.11-4.14,12.54H1043.28z"/>
		<path class="st2" d="M1095.55,484.88c5.21-5.13,11.26-9.18,18.14-12.14c6.88-2.96,14.25-4.43,22.11-4.43h0.7
			c2.88,0,5.11,0.84,6.71,2.51c1.59,1.67,2.39,3.75,2.39,6.24c0,2.49-0.9,4.55-2.68,6.18c-1.79,1.63-3.93,2.45-6.42,2.45h-0.7
			c-5.52,0-10.72,1.07-15.58,3.21c-4.86,2.14-9.12,5.04-12.78,8.69c-3.66,3.66-6.55,7.97-8.69,12.95
			c-2.14,4.98-3.21,10.27-3.21,15.87v43.06c0,2.41-0.84,4.47-2.51,6.18c-1.67,1.71-3.75,2.57-6.24,2.57c-2.41,0-4.47-0.85-6.18-2.57
			c-1.71-1.71-2.57-3.77-2.57-6.18v-92.42c0-2.49,0.86-4.59,2.57-6.3c1.71-1.71,3.81-2.57,6.3-2.57c2.49,0,4.55,0.86,6.18,2.57
			c1.63,1.71,2.45,3.81,2.45,6.3V484.88z"/>
	</g>
	<g>
		<g>
			<path class="st1" d="M1330.27,516.11c0,0,0.8,7.69-1.98,19.37c-5.26,23.15-20.6,42.51-41.15,53.19
				c-10.99,5.72-23.47,8.95-36.7,8.95c-44,0-79.79-35.82-79.79-79.83V438.7c0-13.42,10.88-24.3,24.3-24.3
				c13.42,0,24.3,10.88,24.3,24.3v79.09c0,17.23,13.99,31.24,31.19,31.24c17.22,0,31.23-14.01,31.23-31.24V480.7l33.72,13.04
				c0.86,0.36,1.7,0.77,2.52,1.23c3.13,1.76,5.92,4.25,8.1,7.42C1328.89,506.6,1330.27,511.38,1330.27,516.11z"/>
		</g>
		<path class="st2" d="M1330.27,445.58v-2.34c-0.03-1.07-0.15-2.14-0.31-3.21c-0.63-4.39-2.27-8.71-4.95-12.62
			c-9.37-13.66-28.03-17.13-41.69-7.77c-13.66,9.37-17.13,28.03-7.77,41.69c2.68,3.91,6.12,6.99,9.99,9.16
			c1.01,0.57,0.05-0.1,3.11,1.51c40.1,13.8,41.61,21.91,41.61,21.91V445.58z"/>
		<g>
			<g>
				<path class="st0" d="M1295.15,446.9c0,1.89-1.53,3.43-3.43,3.43c-1.89,0-3.43-1.53-3.43-3.43c0-1.89,1.53-3.43,3.43-3.43
					C1293.61,443.48,1295.15,445.01,1295.15,446.9z"/>
				<path class="st0" d="M1305.1,446.9c0,1.89-1.53,3.43-3.43,3.43c-1.89,0-3.43-1.53-3.43-3.43c0-1.89,1.53-3.43,3.43-3.43
					C1303.57,443.48,1305.1,445.01,1305.1,446.9z"/>
				<path class="st0" d="M1315.05,446.9c0,1.89-1.53,3.43-3.43,3.43c-1.89,0-3.43-1.53-3.43-3.43c0-1.89,1.53-3.43,3.43-3.43
					C1313.52,443.48,1315.05,445.01,1315.05,446.9z"/>
			</g>
		</g>
	</g>
</g>
</svg>
