<?xml version="1.0" encoding="UTF-8" standalone="no"?>
<!DOCTYPE svg PUBLIC "-//W3C//DTD SVG 1.1//EN" "http://www.w3.org/Graphics/SVG/1.1/DTD/svg11.dtd">
<svg xmlns="http://www.w3.org/2000/svg" xmlns:xl="http://www.w3.org/1999/xlink" xmlns:dc="http://purl.org/dc/elements/1.1/" version="1.1" viewBox="0 0 1638.99 1071.24" width="1638.99" height="1071.24">
  <defs/>
  <metadata> Produced by OmniGraffle 7.12.1 
    <dc:date>2021-08-25 11:57:06 +0000</dc:date>
  </metadata>
  <g id="Canvas_1" stroke-opacity="1" stroke-dasharray="none" fill-opacity="1" fill="none" stroke="none">
    <title>Canvas 1</title>
    <g id="Canvas_1: Layer 1">
      <title>Layer 1</title>
      <g id="Group_3">
        <g id="Group_13">
          <g id="Graphic_22">
            <path d="M 326.12 495.03 L 398 495.03 L 398 437.5 C 398 435.09 398.88 433.05 400.62 431.37 C 402.37 429.7 404.45 428.86 406.86 428.86 C 409.27 428.86 411.31 429.7 412.99 431.37 C 414.66 433.04 415.5 435.09 415.5 437.5 L 415.5 569.6 C 415.5 572.01 414.64 574.05 412.93 575.73 C 411.22 577.4 409.16 578.24 406.75 578.24 C 404.26 578.24 402.18 577.41 400.51 575.73 C 398.84 574.06 398 572.02 398 569.6 L 398 512.54 L 326.12 512.54 L 326.12 569.6 C 326.12 572.01 325.26 574.05 323.55 575.73 C 321.84 577.4 319.78 578.24 317.37 578.24 C 314.96 578.24 312.9 577.41 311.19 575.73 C 309.48 574.06 308.62 572.02 308.62 569.6 L 308.62 437.5 C 308.62 435.09 309.47 433.05 311.19 431.37 C 312.9 429.7 314.96 428.86 317.37 428.86 C 319.78 428.86 321.84 429.7 323.55 431.37 C 325.26 433.04 326.12 435.09 326.12 437.5 Z" fill="white"/>
          </g>
          <g id="Graphic_21">
            <path d="M 455.29 531.9 C 455.99 536.26 457.41 540.32 459.55 544.09 C 461.69 547.86 464.37 551.13 467.6 553.89 C 470.83 556.65 474.48 558.81 478.57 560.37 C 482.65 561.93 486.99 562.7 491.58 562.7 C 497.34 562.7 502.47 561.65 506.98 559.55 C 511.49 557.45 515.19 554.65 518.06 551.15 C 519.62 549.91 521.13 549.19 522.61 548.99 C 524.09 548.8 525.49 548.89 526.81 549.28 C 528.52 549.98 529.88 551.19 530.89 552.9 C 532.06 554.53 532.6 556.46 532.52 558.68 C 532.44 560.9 531.39 562.9 529.37 564.69 C 527.35 566.79 525.07 568.74 522.54 570.52 C 520.01 572.31 517.19 573.87 514.08 575.19 C 510.97 576.51 507.55 577.56 503.81 578.34 C 500.08 579.12 495.99 579.51 491.56 579.51 C 483.86 579.51 476.62 578.07 469.86 575.19 C 463.09 572.31 457.18 568.36 452.12 563.35 C 447.06 558.33 443.08 552.44 440.16 545.67 C 437.24 538.9 435.78 531.67 435.78 523.97 C 435.78 516.27 437.24 509.03 440.16 502.27 C 443.08 495.5 447.06 489.61 452.12 484.59 C 457.18 479.57 463.09 475.61 469.86 472.69 C 476.63 469.77 483.86 468.31 491.56 468.31 C 499.18 468.31 506.38 469.75 513.15 472.63 C 519.92 475.51 525.81 479.46 530.83 484.47 C 535.85 489.49 539.83 495.34 542.79 502.03 C 545.75 508.72 547.26 515.88 547.34 523.5 C 547.34 525.99 546.54 528.01 544.95 529.57 C 543.36 531.13 541.28 531.9 538.71 531.9 Z M 529.39 517.2 C 528.77 512.69 527.35 508.47 525.13 504.54 C 522.91 500.61 520.15 497.21 516.84 494.33 C 513.53 491.45 509.74 489.2 505.46 487.56 C 501.18 485.93 496.63 485.11 491.81 485.11 C 486.99 485.11 482.45 485.95 478.22 487.62 C 473.98 489.29 470.23 491.57 466.96 494.45 C 463.69 497.33 460.99 500.73 458.85 504.66 C 456.71 508.59 455.33 512.77 454.71 517.2 Z" fill="white"/>
          </g>
          <g id="Graphic_20">
            <path d="M 557.39 524.03 C 557.39 516.34 558.85 509.11 561.77 502.35 C 564.69 495.59 568.67 489.7 573.73 484.69 C 578.79 479.68 584.7 475.71 591.47 472.8 C 598.24 469.89 605.43 468.43 613.06 468.43 C 620.68 468.43 627.84 469.87 634.53 472.74 C 641.22 475.62 647.07 479.52 652.09 484.45 C 657.11 489.38 661.07 495.19 663.99 501.88 C 666.91 508.56 668.44 515.71 668.6 523.33 L 668.6 569.14 C 668.6 571.63 667.74 573.77 666.03 575.55 C 664.32 577.34 662.18 578.23 659.61 578.23 C 657.12 578.23 655.08 577.34 653.48 575.57 C 651.88 573.79 651.09 571.67 651.09 569.2 L 650.97 563.41 C 645.99 568.28 640.27 572.2 633.82 575.18 C 627.36 578.16 620.44 579.64 613.05 579.64 C 605.43 579.64 598.23 578.18 591.46 575.27 C 584.69 572.36 578.78 568.37 573.72 563.32 C 568.66 558.27 564.68 552.38 561.76 545.66 C 558.84 538.94 557.39 531.72 557.39 524.03 Z M 574.89 524.03 C 574.89 529.25 575.88 534.16 577.87 538.76 C 579.86 543.36 582.57 547.39 585.99 550.86 C 589.41 554.33 593.45 557.07 598.09 559.1 C 602.73 561.13 607.69 562.14 612.99 562.14 C 618.37 562.14 623.37 561.13 628.01 559.1 C 632.65 557.07 636.68 554.33 640.1 550.86 C 643.52 547.39 646.22 543.36 648.16 538.76 C 650.11 534.16 651.08 529.26 651.08 524.03 C 651.08 518.73 650.1 513.77 648.16 509.13 C 646.22 504.49 643.52 500.46 640.1 497.03 C 636.68 493.6 632.64 490.89 628.01 488.91 C 623.38 486.93 618.37 485.93 612.99 485.93 C 607.69 485.93 602.72 486.92 598.09 488.91 C 593.46 490.9 589.42 493.6 585.99 497.03 C 582.56 500.46 579.85 504.49 577.87 509.13 C 575.89 513.77 574.89 518.73 574.89 524.03 Z" fill="white"/>
          </g>
          <g id="Graphic_19">
            <path d="M 709.43 569.6 C 709.43 572.01 708.57 574.05 706.86 575.73 C 705.15 577.4 703.09 578.24 700.68 578.24 C 698.27 578.24 696.21 577.41 694.5 575.73 C 692.79 574.06 691.93 572.02 691.93 569.6 L 691.93 437.5 C 691.93 435.01 692.79 432.95 694.5 431.32 C 696.21 429.69 698.27 428.87 700.68 428.87 C 703.09 428.87 705.15 429.69 706.86 431.32 C 708.57 432.95 709.43 435.02 709.43 437.5 Z" fill="white"/>
          </g>
          <g id="Graphic_18">
            <path d="M 760.66 468.43 L 774.31 468.43 C 776.8 468.43 778.88 469.27 780.55 470.94 C 782.22 472.61 783.06 474.69 783.06 477.18 C 783.06 479.67 782.22 481.75 780.55 483.42 C 778.88 485.09 776.8 485.93 774.31 485.93 L 760.66 485.93 L 760.66 569.6 C 760.66 572.01 759.8 574.05 758.09 575.73 C 756.38 577.4 754.32 578.24 751.91 578.24 C 749.42 578.24 747.32 577.41 745.61 575.73 C 743.9 574.06 743.04 572.02 743.04 569.6 L 743.04 485.93 L 731.84 485.93 C 729.35 485.93 727.25 485.07 725.54 483.36 C 723.83 481.65 722.97 479.59 722.97 477.18 C 722.97 474.69 723.83 472.61 725.54 470.94 C 727.25 469.27 729.35 468.43 731.84 468.43 L 743.04 468.43 L 743.04 437.5 C 743.04 435.01 743.89 432.95 745.61 431.32 C 747.32 429.69 749.42 428.87 751.91 428.87 C 754.32 428.87 756.38 429.69 758.09 431.32 C 759.8 432.95 760.66 435.02 760.66 437.5 Z" fill="white"/>
          </g>
          <g id="Graphic_17">
            <path d="M 814.22 485.81 C 818.73 480.44 823.92 476.18 829.8 473.03 C 835.67 469.88 841.92 468.3 848.53 468.3 C 855.3 468.3 861.4 469.58 866.85 472.15 C 872.29 474.72 876.96 478.35 880.85 483.06 C 884.74 487.77 887.75 493.41 889.89 499.98 C 892.03 506.55 893.1 513.85 893.1 521.86 L 893.1 569.7 C 893.1 572.19 892.24 574.25 890.53 575.88 C 888.82 577.51 886.72 578.33 884.23 578.33 C 881.82 578.33 879.78 577.51 878.1 575.88 C 876.43 574.25 875.59 572.19 875.59 569.7 L 875.59 521.62 C 875.51 516.02 874.81 511 873.49 506.57 C 872.17 502.14 870.24 498.38 867.71 495.31 C 865.18 492.24 862.15 489.88 858.61 488.25 C 855.07 486.62 851.04 485.8 846.53 485.8 C 842.1 485.8 837.95 486.68 834.1 488.43 C 830.25 490.18 826.88 492.59 824.01 495.66 C 821.13 498.73 818.82 502.35 817.07 506.51 C 815.32 510.67 814.37 515.17 814.21 519.99 L 814.21 569.47 C 814.21 571.88 813.37 573.94 811.7 575.65 C 810.03 577.36 807.98 578.22 805.57 578.22 C 803.08 578.22 800.98 577.37 799.27 575.65 C 797.56 573.94 796.7 571.88 796.7 569.47 L 796.7 437.85 C 796.7 435.36 797.58 433.24 799.32 431.49 C 801.07 429.74 803.15 428.86 805.56 428.86 C 807.97 428.86 810.01 429.74 811.69 431.49 C 813.36 433.24 814.2 435.36 814.2 437.85 L 814.2 485.81 Z" fill="white"/>
          </g>
          <g id="Graphic_16">
            <path d="M 917.08 435.81 C 919.06 433.83 921.49 432.83 924.37 432.83 C 927.25 432.83 929.68 433.82 931.66 435.81 C 933.64 437.79 934.64 440.23 934.64 443.1 C 934.64 445.9 933.65 448.31 931.66 450.33 C 929.68 452.35 927.24 453.36 924.37 453.36 C 921.49 453.36 919.06 452.35 917.08 450.33 C 915.1 448.31 914.1 445.9 914.1 443.1 C 914.1 440.23 915.09 437.8 917.08 435.81 Z M 933.12 569.48 C 933.12 571.89 932.28 573.95 930.61 575.66 C 928.94 577.37 926.89 578.23 924.48 578.23 C 922.07 578.23 919.99 577.38 918.24 575.66 C 916.49 573.95 915.62 571.89 915.62 569.48 L 915.62 477.06 C 915.62 474.57 916.48 472.47 918.19 470.76 C 919.9 469.05 922 468.19 924.49 468.19 C 926.98 468.19 929.04 469.05 930.67 470.76 C 932.3 472.47 933.12 474.57 933.12 477.06 Z" fill="white"/>
          </g>
          <g id="Graphic_15">
            <path d="M 969.18 531.9 C 969.88 536.26 971.3 540.32 973.44 544.09 C 975.58 547.86 978.26 551.13 981.49 553.89 C 984.72 556.65 988.37 558.81 992.46 560.37 C 996.54 561.93 1000.88 562.7 1005.47 562.7 C 1011.23 562.7 1016.36 561.65 1020.87 559.55 C 1025.38 557.45 1029.08 554.65 1031.95 551.15 C 1033.51 549.91 1035.02 549.19 1036.5 548.99 C 1037.98 548.8 1039.38 548.89 1040.7 549.28 C 1042.41 549.98 1043.77 551.19 1044.78 552.9 C 1045.95 554.53 1046.49 556.46 1046.41 558.68 C 1046.33 560.9 1045.28 562.9 1043.26 564.69 C 1041.24 566.79 1038.96 568.74 1036.43 570.52 C 1033.9 572.31 1031.08 573.87 1027.97 575.19 C 1024.86 576.51 1021.44 577.56 1017.7 578.34 C 1013.97 579.12 1009.88 579.51 1005.45 579.51 C 997.75 579.51 990.51 578.07 983.75 575.19 C 976.98 572.31 971.07 568.36 966.01 563.35 C 960.95 558.33 956.97 552.44 954.05 545.67 C 951.13 538.9 949.67 531.67 949.67 523.97 C 949.67 516.27 951.13 509.03 954.05 502.27 C 956.97 495.5 960.95 489.61 966.01 484.59 C 971.07 479.57 976.98 475.61 983.75 472.69 C 990.52 469.77 997.75 468.31 1005.45 468.31 C 1013.07 468.31 1020.27 469.75 1027.04 472.63 C 1033.81 475.51 1039.7 479.46 1044.72 484.47 C 1049.74 489.49 1053.72 495.34 1056.68 502.03 C 1059.64 508.72 1061.15 515.88 1061.23 523.5 C 1061.23 525.99 1060.43 528.01 1058.84 529.57 C 1057.25 531.13 1055.17 531.9 1052.6 531.9 Z M 1043.28 517.2 C 1042.66 512.69 1041.24 508.47 1039.02 504.54 C 1036.8 500.61 1034.04 497.21 1030.73 494.33 C 1027.42 491.45 1023.63 489.2 1019.35 487.56 C 1015.07 485.93 1010.52 485.11 1005.7 485.11 C 1000.88 485.11 996.34 485.95 992.11 487.62 C 987.87 489.29 984.12 491.57 980.85 494.45 C 977.58 497.33 974.88 500.73 972.74 504.66 C 970.6 508.59 969.22 512.77 968.6 517.2 Z" fill="white"/>
          </g>
          <g id="Graphic_14">
            <path d="M 1095.55 484.88 C 1100.76 479.75 1106.81 475.7 1113.69 472.74 C 1120.57 469.78 1127.94 468.31 1135.8 468.31 L 1136.5 468.31 C 1139.38 468.31 1141.61 469.15 1143.21 470.82 C 1144.8 472.49 1145.6 474.57 1145.6 477.06 C 1145.6 479.55 1144.7 481.61 1142.92 483.24 C 1141.13 484.87 1138.99 485.69 1136.5 485.69 L 1135.8 485.69 C 1130.28 485.69 1125.08 486.76 1120.22 488.9 C 1115.36 491.04 1111.1 493.94 1107.44 497.59 C 1103.78 501.25 1100.89 505.56 1098.75 510.54 C 1096.61 515.52 1095.54 520.81 1095.54 526.41 L 1095.54 569.47 C 1095.54 571.88 1094.7 573.94 1093.03 575.65 C 1091.36 577.36 1089.28 578.22 1086.79 578.22 C 1084.38 578.22 1082.32 577.37 1080.61 575.65 C 1078.9 573.94 1078.04 571.88 1078.04 569.47 L 1078.04 477.05 C 1078.04 474.56 1078.9 472.46 1080.61 470.75 C 1082.32 469.04 1084.42 468.18 1086.91 468.18 C 1089.4 468.18 1091.46 469.04 1093.09 470.75 C 1094.72 472.46 1095.54 474.56 1095.54 477.05 L 1095.54 484.88 Z" fill="white"/>
          </g>
        </g>
        <g id="Group_4">
          <g id="Group_11">
            <g id="Graphic_12">
              <path d="M 1330.27 516.11 C 1330.27 516.11 1331.07 523.8 1328.29 535.48 C 1323.03 558.63 1307.69 577.99 1287.14 588.67 C 1276.15 594.39 1263.67 597.62 1250.44 597.62 C 1206.44 597.62 1170.65 561.8 1170.65 517.79 L 1170.65 438.7 C 1170.65 425.28 1181.53 414.4 1194.95 414.4 C 1208.37 414.4 1219.25 425.28 1219.25 438.7 L 1219.25 517.79 C 1219.25 535.02 1233.24 549.03 1250.44 549.03 C 1267.66 549.03 1281.67 535.02 1281.67 517.79 L 1281.67 480.7 L 1315.39 493.74 C 1316.25 494.1 1317.09 494.51 1317.91 494.97 C 1321.04 496.73 1323.83 499.22 1326.01 502.39 C 1328.89 506.6 1330.27 511.38 1330.27 516.11 Z" fill="#f4cdb6"/>
            </g>
          </g>
          <g id="Graphic_10">
            <path d="M 1330.27 445.58 L 1330.27 443.24 C 1330.24 442.17 1330.12 441.1 1329.96 440.03 C 1329.33 435.64 1327.69 431.32 1325.01 427.41 C 1315.64 413.75 1296.98 410.28 1283.32 419.64 C 1269.66 429.01 1266.19 447.67 1275.55 461.33 C 1278.23 465.24 1281.67 468.32 1285.54 470.49 C 1286.55 471.06 1285.59 470.39 1288.65 472 C 1328.75 485.8 1330.26 493.91 1330.26 493.91 L 1330.26 445.58 Z" fill="white"/>
          </g>
          <g id="Group_5">
            <g id="Group_6">
              <g id="Graphic_9">
                <path d="M 1295.15 446.9 C 1295.15 448.79 1293.62 450.33 1291.72 450.33 C 1289.83 450.33 1288.29 448.8 1288.29 446.9 C 1288.29 445.01 1289.82 443.47 1291.72 443.47 C 1293.61 443.48 1295.15 445.01 1295.15 446.9 Z" fill="#5eccc8"/>
              </g>
              <g id="Graphic_8">
                <path d="M 1305.1 446.9 C 1305.1 448.79 1303.57 450.33 1301.67 450.33 C 1299.78 450.33 1298.24 448.8 1298.24 446.9 C 1298.24 445.01 1299.77 443.47 1301.67 443.47 C 1303.57 443.48 1305.1 445.01 1305.1 446.9 Z" fill="#5eccc8"/>
              </g>
              <g id="Graphic_7">
                <path d="M 1315.05 446.9 C 1315.05 448.79 1313.52 450.33 1311.62 450.33 C 1309.73 450.33 1308.19 448.8 1308.19 446.9 C 1308.19 445.01 1309.72 443.47 1311.62 443.47 C 1313.52 443.48 1315.05 445.01 1315.05 446.9 Z" fill="#5eccc8"/>
              </g>
            </g>
          </g>
        </g>
      </g>
    </g>
  </g>
</svg>
