<svg xmlns="http://www.w3.org/2000/svg" width="183.343" height="42.439" viewBox="0 0 183.343 42.439">
  <defs>
    <style>
      .cls-1 {
        fill: #477fe8;
      }

      .cls-2 {
        fill: #00d0cc;
      }

      .cls-3 {
        fill: #fff;
      }

      .cls-4 {
        fill: #00d1cd;
      }
    </style>
  </defs>
  <g id="Group_926" data-name="Group 926" transform="translate(-352.574 -545.173)">
    <g id="Group_822" data-name="Group 822" transform="translate(502.827 545.174)">
      <path id="Path_593" data-name="Path 593" class="cls-1" d="M1245.182,566.253a13.2,13.2,0,0,1-.41,4.013,16.6,16.6,0,0,1-8.526,11.019,16.526,16.526,0,0,1-24.132-14.685V550.215a5.034,5.034,0,0,1,10.068,0V566.6a6.466,6.466,0,1,0,12.932,0v-7.683l6.985,2.7a4.871,4.871,0,0,1,.522.255,5.034,5.034,0,0,1,2.561,4.379Z" transform="translate(-1212.115 -545.181)"/>
    </g>
    <path id="Path_594" data-name="Path 594" class="cls-2" d="M1342.63,551.635v-.484a5.5,5.5,0,0,0-.064-.665,6.212,6.212,0,1,0-9.2,6.31c.209.118.01-.02.645.314,8.308,2.859,8.62,4.538,8.62,4.538Z" transform="translate(-806.735)"/>
    <g id="Group_824" data-name="Group 824" transform="translate(527.199 551.198)">
      <g id="Group_823" data-name="Group 823" transform="translate(0 0)">
        <path id="Path_595" data-name="Path 595" class="cls-3" d="M1352.954,580.352a.71.71,0,1,1-.71-.71A.71.71,0,0,1,1352.954,580.352Z" transform="translate(-1351.534 -579.642)"/>
        <path id="Path_596" data-name="Path 596" class="cls-3" d="M1364.75,580.352a.71.71,0,1,1-.71-.71A.71.71,0,0,1,1364.75,580.352Z" transform="translate(-1361.268 -579.642)"/>
        <path id="Path_597" data-name="Path 597" class="cls-3" d="M1376.545,580.352a.71.71,0,1,1-.71-.71A.71.71,0,0,1,1376.545,580.352Z" transform="translate(-1371.001 -579.642)"/>
      </g>
    </g>
    <g id="Group_825" data-name="Group 825" transform="translate(352.574 547.671)">
      <path id="Path_598" data-name="Path 598" class="cls-4" d="M356.25,573.36h15.1V561.279a1.713,1.713,0,0,1,.551-1.287,1.833,1.833,0,0,1,1.311-.527,1.8,1.8,0,0,1,1.813,1.813v27.739a1.73,1.73,0,0,1-.539,1.287,1.88,1.88,0,0,1-2.61,0,1.749,1.749,0,0,1-.527-1.287V577.036h-15.1v11.983a1.73,1.73,0,0,1-.539,1.287,1.864,1.864,0,0,1-2.6,0,1.729,1.729,0,0,1-.539-1.287V561.279a1.731,1.731,0,0,1,.539-1.287,1.864,1.864,0,0,1,2.6,0,1.732,1.732,0,0,1,.539,1.287Z" transform="translate(-352.574 -559.466)"/>
      <path id="Path_599" data-name="Path 599" class="cls-4" d="M509.461,620.2a7.684,7.684,0,0,0,2.585,4.619,7.758,7.758,0,0,0,2.3,1.36,8.063,8.063,0,0,0,5.967-.171,6.52,6.52,0,0,0,2.328-1.764,1.966,1.966,0,0,1,.956-.453,2.126,2.126,0,0,1,.882.061,1.757,1.757,0,0,1,.858.76,1.911,1.911,0,0,1,.343,1.213,1.749,1.749,0,0,1-.662,1.262,10.031,10.031,0,0,1-1.433,1.225,9.479,9.479,0,0,1-1.776.98,11.472,11.472,0,0,1-2.156.661,12.634,12.634,0,0,1-2.573.245,11.526,11.526,0,0,1-4.558-.906,11.645,11.645,0,0,1-6.236-6.2,11.762,11.762,0,0,1,0-9.116,11.682,11.682,0,0,1,2.512-3.712,11.941,11.941,0,0,1,3.725-2.5,11.777,11.777,0,0,1,9.091-.012,11.625,11.625,0,0,1,3.713,2.487,12.05,12.05,0,0,1,2.512,3.688,11.328,11.328,0,0,1,.956,4.509,1.7,1.7,0,0,1-.5,1.275,1.8,1.8,0,0,1-1.311.49Zm15.56-3.088a7.434,7.434,0,0,0-.894-2.659,8.1,8.1,0,0,0-1.74-2.144,7.969,7.969,0,0,0-5.256-1.936,7.71,7.71,0,0,0-2.855.527,7.971,7.971,0,0,0-2.365,1.434,7.812,7.812,0,0,0-1.7,2.144,7.7,7.7,0,0,0-.87,2.634Z" transform="translate(-478.659 -598.565)"/>
      <path id="Path_600" data-name="Path 600" class="cls-4" d="M651.438,618.665a11.367,11.367,0,0,1,.919-4.553,11.672,11.672,0,0,1,2.512-3.709,11.944,11.944,0,0,1,3.725-2.5,11.664,11.664,0,0,1,9.042-.012,11.921,11.921,0,0,1,3.688,2.46,11.565,11.565,0,0,1,2.5,3.66,11.748,11.748,0,0,1,.968,4.5v9.62a1.879,1.879,0,0,1-.539,1.346,1.79,1.79,0,0,1-1.348.563,1.65,1.65,0,0,1-1.286-.56,1.933,1.933,0,0,1-.5-1.338l-.025-1.216a12.724,12.724,0,0,1-3.6,2.471,10.292,10.292,0,0,1-4.362.937,11.337,11.337,0,0,1-4.533-.918,11.793,11.793,0,0,1-6.236-6.218A11.281,11.281,0,0,1,651.438,618.665Zm3.676,0a7.705,7.705,0,0,0,.626,3.092,8.21,8.21,0,0,0,1.706,2.54,8.087,8.087,0,0,0,2.54,1.73,8.055,8.055,0,0,0,6.283,0,8.01,8.01,0,0,0,4.234-4.271,7.845,7.845,0,0,0,.614-3.092,8,8,0,0,0-.614-3.129,7.864,7.864,0,0,0-1.693-2.54,8.026,8.026,0,0,0-2.54-1.706,8.194,8.194,0,0,0-6.283,0,7.933,7.933,0,0,0-4.246,4.246A7.855,7.855,0,0,0,655.114,618.665Z" transform="translate(-599.195 -598.681)"/>
      <path id="Path_601" data-name="Path 601" class="cls-4" d="M816.74,589.019a1.731,1.731,0,0,1-.539,1.287,1.865,1.865,0,0,1-2.6,0,1.73,1.73,0,0,1-.539-1.287V561.279a1.72,1.72,0,0,1,.539-1.3,1.9,1.9,0,0,1,2.6,0,1.721,1.721,0,0,1,.539,1.3Z" transform="translate(-732.567 -559.466)"/>
      <path id="Path_602" data-name="Path 602" class="cls-4" d="M858.266,567.773h2.867a1.838,1.838,0,1,1,0,3.676h-2.867v17.57a1.731,1.731,0,0,1-.539,1.287,1.791,1.791,0,0,1-1.3.527,1.819,1.819,0,0,1-1.323-.527,1.729,1.729,0,0,1-.539-1.287v-17.57h-2.353a1.8,1.8,0,0,1-1.323-.539,1.849,1.849,0,0,1,0-2.61,1.82,1.82,0,0,1,1.323-.527h2.353v-6.494a1.719,1.719,0,0,1,.539-1.3,1.843,1.843,0,0,1,1.323-.514,1.814,1.814,0,0,1,1.3.514,1.721,1.721,0,0,1,.539,1.3Z" transform="translate(-763.336 -559.466)"/>
      <path id="Path_603" data-name="Path 603" class="cls-4" d="M942.622,571.424a11.121,11.121,0,0,1,3.271-2.683,8.2,8.2,0,0,1,3.933-.992,8.915,8.915,0,0,1,3.847.808,8.456,8.456,0,0,1,2.941,2.291,10.717,10.717,0,0,1,1.9,3.553,14.778,14.778,0,0,1,.674,4.595v10.047a1.72,1.72,0,0,1-.539,1.3,1.845,1.845,0,0,1-1.324.515,1.771,1.771,0,0,1-1.286-.515,1.736,1.736,0,0,1-.527-1.3v-10.1a11.633,11.633,0,0,0-.441-3.161,6.667,6.667,0,0,0-1.213-2.365,5.348,5.348,0,0,0-1.911-1.482,5.986,5.986,0,0,0-2.536-.515,6.232,6.232,0,0,0-2.61.551,6.641,6.641,0,0,0-2.119,1.519,7.613,7.613,0,0,0-1.458,2.279,7.894,7.894,0,0,0-.6,2.83v10.39a1.791,1.791,0,0,1-.527,1.3,1.731,1.731,0,0,1-1.286.539,1.8,1.8,0,0,1-1.323-.539,1.769,1.769,0,0,1-.539-1.3V561.353a1.819,1.819,0,0,1,.551-1.335,1.79,1.79,0,0,1,1.311-.551,1.712,1.712,0,0,1,1.286.551,1.863,1.863,0,0,1,.527,1.335Z" transform="translate(-836.445 -559.466)"/>
      <path id="Path_604" data-name="Path 604" class="cls-4" d="M1081.231,623.742l7.008-15.854a1.882,1.882,0,0,1,1.017-1,1.641,1.641,0,0,1,1.409.049,1.844,1.844,0,0,1,.968,1.029,1.76,1.76,0,0,1-.037,1.421l-12.5,27.911a1.933,1.933,0,0,1-1.042.992,1.732,1.732,0,0,1-1.409-.036,1.571,1.571,0,0,1-.894-1.029,1.96,1.96,0,0,1,.159-1.4l3.406-7.719-8.356-18.722a1.868,1.868,0,0,1-.184-.735,1.674,1.674,0,0,1,.122-.7,2.179,2.179,0,0,1,.38-.613,1.6,1.6,0,0,1,.588-.429,1.7,1.7,0,0,1,1.409-.024,1.883,1.883,0,0,1,1.017,1Z" transform="translate(-945.232 -598.477)"/>
    </g>
  </g>
</svg>
