<svg xmlns="http://www.w3.org/2000/svg" width="92.114" height="126.92" viewBox="0 0 92.114 126.92">
  <g id="Group_961" data-name="Group 961" transform="translate(-299.577 -343.38)">
    <g id="Group_71" data-name="Group 71" transform="translate(299.577 343.38)">
      <g id="Group_69" data-name="Group 69" transform="translate(14.075 0)">
        <path id="Path_112" data-name="Path 112" d="M736.057,286.408a31.013,31.013,0,0,0-1.836-5.45,62.5,62.5,0,0,1-17.167,2.6h-.215a11.006,11.006,0,0,1,.1,1.448,10.808,10.808,0,0,1-.874,4.268A72.139,72.139,0,0,0,736.057,286.408Z" transform="translate(-674.335 -262.349)" fill="#00d1cd"/>
        <path id="Path_113" data-name="Path 113" d="M685.2,276.334a10.871,10.871,0,0,1,20.586,0,60.408,60.408,0,0,0,16.96-2.41,31.288,31.288,0,0,0-55.29-.217A60.338,60.338,0,0,0,685.2,276.334Z" transform="translate(-663.767 -257.179)" fill="#00d1cd"/>
        <path id="Path_114" data-name="Path 114" d="M705.136,293.331c-1.068,0-1.7-.036-1.8-.041h0a10.858,10.858,0,0,1-17.8-.08l0,.081c-.1.005-.727.041-1.8.041a73.962,73.962,0,0,1-20.539-3.142,31.282,31.282,0,1,0,61.653.235A73.771,73.771,0,0,1,705.136,293.331Z" transform="translate(-662.741 -264.356)" fill="#00d1cd"/>
        <path id="Path_115" data-name="Path 115" d="M683.679,283.493a62.632,62.632,0,0,1-17.914-2.824,31.078,31.078,0,0,0-1.879,5.444,72.224,72.224,0,0,0,20.834,3.1,10.8,10.8,0,0,1-.775-5.716Z" transform="translate(-662.99 -262.286)" fill="#00d1cd"/>
      </g>
      <g id="Group_70" data-name="Group 70" transform="translate(42.41 19.132)">
        <path id="Path_116" data-name="Path 116" d="M702.294,288.32a3.346,3.346,0,1,1,3.346-3.346A3.35,3.35,0,0,1,702.294,288.32Zm0-4.651a1.3,1.3,0,1,0,1.3,1.3A1.306,1.306,0,0,0,702.294,283.669Z" transform="translate(-698.948 -281.627)" fill="#fff"/>
      </g>
      <path id="Path_117" data-name="Path 117" d="M714.717,291.406" transform="translate(-659.966 -264.621)" fill="#fff" stroke="#13a5d8" stroke-miterlimit="10" stroke-width="8"/>
      <path id="Path_118" data-name="Path 118" d="M713.137,338.392h-1.168c-.713,15.9-4.884,27.1-9.242,34.612l-9.005-24.23,2.994-7.348a15.065,15.065,0,0,1-12.792,0l2.449,7.348-6.956,24.4c-6.786-12.765-9.309-30.633-9.82-34.779h-1.111a23.731,23.731,0,0,0-23.732,23.732v39.633h92.114V362.124A23.731,23.731,0,0,0,713.137,338.392Zm-21.26,47.385-.054-.02.171-.06C691.918,385.75,691.877,385.777,691.877,385.777Zm38.607-3.591h-6.818v6.837h-7.2v-6.837h-6.653v-7.333h6.653v-6.625h7.2v6.625h6.818Z" transform="translate(-644.755 -274.837)" fill="#4f80e2"/>
    </g>
  </g>
</svg>
