<svg xmlns="http://www.w3.org/2000/svg" width="92.447" height="127.379" viewBox="0 0 92.447 127.379">
  <g id="Group_964" data-name="Group 964" transform="translate(-365.922 -257.179)">
    <circle id="Ellipse_1" data-name="Ellipse 1" cx="31.338" cy="31.338" r="31.338" transform="translate(379.768 257.179)" fill="#00d1cd"/>
    <path id="Path_76" data-name="Path 76" d="M434.552,338.392h-1.172a38.265,38.265,0,0,1-16.134,7.512h0c-.024.006-.047.009-.07.014l-.016,0a31.86,31.86,0,0,1-10.419.04l.011.032c-.239-.04-.466-.094-.7-.14-.328-.056-.525-.094-.525-.094l0-.013a32.694,32.694,0,0,1-14.667-7.355h-1.116a23.817,23.817,0,0,0-23.817,23.817v39.776h92.447V362.209A23.817,23.817,0,0,0,434.552,338.392Zm-21.337,47.556-.054-.021.171-.059C413.255,385.923,413.215,385.948,413.215,385.948Z" transform="translate(0 -17.428)" fill="#4f80e2"/>
  </g>
</svg>
