<svg xmlns="http://www.w3.org/2000/svg" width="125.764" height="127.812" viewBox="0 0 125.764 127.812">
  <g id="Group_965" data-name="Group 965" transform="translate(-324.046 -487.45)">
    <circle id="Ellipse_2" data-name="Ellipse 2" cx="31.445" cy="31.445" r="31.445" transform="translate(370.941 487.45)" fill="#00d1cd"/>
    <g id="Group_40" data-name="Group 40" transform="translate(324.046 566.751)">
      <g id="Group_39" data-name="Group 39" transform="translate(0 0)">
        <path id="Rectangle_8" data-name="Rectangle 8" d="M5.436,0H5.81a5.437,5.437,0,0,1,5.437,5.437V31.516A5.437,5.437,0,0,1,5.81,36.952H5.437A5.437,5.437,0,0,1,0,31.516V5.436A5.436,5.436,0,0,1,5.436,0Z" fill="#00d1cd"/>
        <path id="Rectangle_9" data-name="Rectangle 9" d="M5.436,0H5.81a5.436,5.436,0,0,1,5.436,5.436V31.516A5.437,5.437,0,0,1,5.81,36.952H5.437A5.437,5.437,0,0,1,0,31.515V5.436A5.436,5.436,0,0,1,5.436,0Z" transform="translate(60.866)" fill="#00d1cd"/>
      </g>
      <path id="Path_77" data-name="Path 77" d="M341.251,616.415h1.511a8.221,8.221,0,0,1,.561-5.315l3.5-8.075h-5.568Zm41.544-13.39-.011,3.757c0,.035,0,.071,0,.105a7.056,7.056,0,0,1-.813,2.959,2.071,2.071,0,0,1,.839,1.66v4.908h3.441v-13.39Z" transform="translate(-327.692 -591.243)" fill="#00d1cd"/>
      <path id="Path_78" data-name="Path 78" d="M381.652,604.3l.022-7.7v-1.029c0-2.327-1.487-4.218-3.323-4.219h-1.173a3.324,3.324,0,0,0-2.932,2.272,3.319,3.319,0,0,0-2.933-2.272l-1.17,0a3.317,3.317,0,0,0-2.934,2.272,3.321,3.321,0,0,0-2.935-2.271l-1.171,0a3.324,3.324,0,0,0-2.933,2.274,3.33,3.33,0,0,0-2.933-2.274h-1.17a3.405,3.405,0,0,0-3.044,2.523,5.108,5.108,0,0,1,1.288-.166,5.336,5.336,0,0,1,3.327,1.2,7.821,7.821,0,0,1,1.809,9.331l0,.005,0,.006-1.978,3.958a3.379,3.379,0,0,0,2.709-2.26,3.323,3.323,0,0,0,2.932,2.275l1.173,0a3.317,3.317,0,0,0,2.93-2.273,3.318,3.318,0,0,0,2.938,2.273h1.169a3.324,3.324,0,0,0,2.935-2.271,3.318,3.318,0,0,0,2.931,2.271h1.17C380.107,608.218,381.531,606.49,381.652,604.3ZM356.19,632.669c0,2.284,1.463,4.138,3.264,4.136h18.761c1.8,0,3.262-1.853,3.26-4.138s-1.46-4.139-3.26-4.139l-18.767,0C357.653,628.528,356.19,630.384,356.19,632.669Zm-10.049-17.777,10.4,11.095a3.446,3.446,0,0,0,2.586,1.046c.021,0,.039.01.056.01h19.16c1.835,0,3.324-1.887,3.324-4.218l0-13.06V609h-.094a4.835,4.835,0,0,1-3.229,1.251l-1.177,0a4.785,4.785,0,0,1-2.928-1.014,4.8,4.8,0,0,1-2.931,1.014h-1.177a4.784,4.784,0,0,1-2.931-1.014,4.784,4.784,0,0,1-2.927,1.014l-1.173,0H363.1a4.8,4.8,0,0,1-2.929-1.013,4.8,4.8,0,0,1-2.927,1.01l-1.184,0a4.715,4.715,0,0,1-1.731-.338l3.289-6.582a5.789,5.789,0,0,0-1.245-6.833,3.317,3.317,0,0,0-2.067-.756,3.8,3.8,0,0,0-3.317,2.333l-.287.663h0l-4.642,10.724A6.123,6.123,0,0,0,346.141,614.892Z" transform="translate(-328.585 -588.77)" fill="#00d1cd"/>
    </g>
    <path id="Path_79" data-name="Path 79" d="M435.859,568.663h-1.177a38.4,38.4,0,0,1-16.189,7.537h0l-.07.014-.016,0a32,32,0,0,1-10.455.039l.011.033c-.239-.041-.467-.1-.7-.141-.329-.056-.526-.094-.526-.094l0-.012a32.807,32.807,0,0,1-14.717-7.38h-1.12a23.873,23.873,0,0,0-19.906,10.675H408.67A3.664,3.664,0,0,1,412.334,583v49.471h47.424V592.561A23.9,23.9,0,0,0,435.859,568.663Zm-21.41,47.719c-.018-.006-.036-.015-.054-.021l.172-.059Z" transform="translate(-9.948 -17.211)" fill="#4f80e2"/>
  </g>
</svg>
