<svg id="Group_876" data-name="Group 876" xmlns="http://www.w3.org/2000/svg" width="38.147" height="29.466" viewBox="0 0 38.147 29.466">
  <path id="Path_31" data-name="Path 31" d="M1297.313,800.4a3.55,3.55,0,1,1-3.55-3.55A3.55,3.55,0,0,1,1297.313,800.4Z" transform="translate(-1285.114 -774.489)" fill="#00d1cd"/>
  <path id="Path_32" data-name="Path 32" d="M1375.492,800.4a3.55,3.55,0,1,1-3.55-3.55A3.55,3.55,0,0,1,1375.492,800.4Z" transform="translate(-1343.469 -774.489)" fill="#00d1cd"/>
  <path id="Path_33" data-name="Path 33" d="M1380.437,737.852c-2.583-10.041-11.284-10.636-11.372-10.641l.045-.823a12.926,12.926,0,0,1,5.042,1.607,14.68,14.68,0,0,1,7.082,9.652Z" transform="translate(-1343.971 -721.891)" fill="#00d1cd"/>
  <path id="Path_34" data-name="Path 34" d="M1311.376,711.4h-.824v-1.925h-7.14V711.4h-.824v-2.749h8.787Z" transform="translate(-1294.352 -708.653)" fill="#00d1cd"/>
  <path id="Path_35" data-name="Path 35" d="M1308.881,710.278v2.883h-4.668v-2.883" transform="translate(-1295.564 -709.866)" fill="#00d1cd"/>
  <path id="Path_36" data-name="Path 36" d="M1295.223,732.052V719.494h-25.117V741.94l3.965.011a4.737,4.737,0,0,1,9.37.025l10.394.028a4.736,4.736,0,0,1,9.384.025l5.033.013v-9.99Zm-8.124-1.078h-3.783v3.794h-4v-3.794h-3.691v-4.068h3.691v-3.676h4v3.676h3.783Z" transform="translate(-1270.106 -716.745)" fill="#4f7fe2"/>
</svg>
