<svg xmlns="http://www.w3.org/2000/svg" width="12.445" height="12.291" viewBox="0 0 12.445 12.291">
  <defs>
    <style>
      .cls-1 {
        fill: #4f80e2;
        fill-rule: evenodd;
      }
    </style>
  </defs>
  <g id="Group_55" data-name="Group 55" transform="translate(0 0)">
    <path id="Path_106" data-name="Path 106" class="cls-1" d="M256.435,255.621H246.154a1.082,1.082,0,0,1-1.082-1.082v-8.967a1.082,1.082,0,0,1,1.082-1.082h.7a.382.382,0,0,1,.386.377v.242a.928.928,0,1,0,1.855,0v-.242a.382.382,0,0,1,.386-.377h3.633a.382.382,0,0,1,.387.377v.242a.928.928,0,1,0,1.855,0v-.242a.382.382,0,0,1,.387-.377h.7a1.082,1.082,0,0,1,1.082,1.082v8.967A1.082,1.082,0,0,1,256.435,255.621Zm.464-8.426H245.69v7.266a.541.541,0,0,0,.541.541h10.126a.541.541,0,0,0,.541-.541Zm-2.474-1.546a.541.541,0,0,1-.541-.541v-1.237a.541.541,0,1,1,1.082,0v1.237A.541.541,0,0,1,254.425,245.649Zm-6.261,0a.541.541,0,0,1-.541-.541v-1.237a.541.541,0,0,1,1.082,0v1.237A.541.541,0,0,1,248.164,245.649Z" transform="translate(-245.072 -243.33)"/>
    <path id="Path_107" data-name="Path 107" class="cls-1" d="M400.459,459.891a.734.734,0,1,1,.734-.734A.734.734,0,0,1,400.459,459.891Zm0-1.082a.348.348,0,1,0,.348.348A.348.348,0,0,0,400.459,458.808Z" transform="translate(-393 -449.069)"/>
    <path id="Path_108" data-name="Path 108" class="cls-1" d="M294.112,353.233a.734.734,0,1,1,.734-.734A.734.734,0,0,1,294.112,353.233Zm-2.474,2.319a.734.734,0,1,1,.734-.734A.734.734,0,0,1,291.639,355.552Zm0-2.319a.734.734,0,1,1,.734-.734A.734.734,0,0,1,291.639,353.233Zm-2.474,4.638a.734.734,0,1,1,.734-.734A.734.734,0,0,1,289.165,357.871Zm0-2.319a.734.734,0,1,1,.734-.734A.734.734,0,0,1,289.165,355.552Zm0-2.319a.734.734,0,1,1,.734-.734A.734.734,0,0,1,289.165,353.233Zm-2.474,4.638a.734.734,0,1,1,.734-.734A.734.734,0,0,1,286.691,357.871Zm0-2.319a.734.734,0,1,1,.734-.734A.734.734,0,0,1,286.691,355.552Zm7.421-1.469a.734.734,0,1,1-.734.734A.734.734,0,0,1,294.112,354.083Z" transform="translate(-284.179 -347.049)"/>
  </g>
</svg>
