<svg xmlns="http://www.w3.org/2000/svg" width="28.582" height="37.902" viewBox="0 0 28.582 37.902">
  <g id="Group_873" data-name="Group 873" transform="translate(0)">
    <path id="Path_21" data-name="Path 21" d="M1302.251,278.523v-1.114a12.656,12.656,0,0,0-.148-1.53,14.29,14.29,0,1,0-21.165,14.517c.481.271.024-.046,1.483.722,19.113,6.578,19.83,10.441,19.83,10.441Z" transform="translate(-1273.669 -263.657)" fill="#00d1cd"/>
    <g id="Group_15" data-name="Group 15" transform="translate(8.577 13.862)">
      <g id="Group_14" data-name="Group 14">
        <path id="Path_22" data-name="Path 22" d="M1310.761,319.956a1.633,1.633,0,1,1-1.633-1.633A1.633,1.633,0,0,1,1310.761,319.956Z" transform="translate(-1307.495 -318.323)" fill="#fff"/>
        <path id="Path_23" data-name="Path 23" d="M1329.468,319.956a1.633,1.633,0,1,1-1.633-1.633A1.633,1.633,0,0,1,1329.468,319.956Z" transform="translate(-1321.458 -318.323)" fill="#fff"/>
        <path id="Path_24" data-name="Path 24" d="M1348.175,319.956a1.633,1.633,0,1,1-1.633-1.633A1.633,1.633,0,0,1,1348.175,319.956Z" transform="translate(-1335.421 -318.323)" fill="#fff"/>
      </g>
    </g>
  </g>
</svg>
