<svg id="Group_874" data-name="Group 874" xmlns="http://www.w3.org/2000/svg" width="36.082" height="37.91" viewBox="0 0 36.082 37.91">
  <path id="Path_25" data-name="Path 25" d="M1299.328,486.682h-26.7a4.7,4.7,0,0,0-4.691,4.691v21.808a4.7,4.7,0,0,0,4.691,4.691h5.319v5.421h-6.427v1.3h29.161v-1.3h-6.289v-5.421h4.935a4.7,4.7,0,0,0,4.691-4.691V491.373A4.7,4.7,0,0,0,1299.328,486.682Zm-26.7,3.3h26.7a1.4,1.4,0,0,1,1.395,1.395V501.6h-8.4l-3.563,5.836-4.979-15.406-2.324,10.624h-10.222V491.373A1.4,1.4,0,0,1,1272.629,489.979Zm26.7,24.6h-26.7a1.4,1.4,0,0,1-1.395-1.395v-8.748h11.651l1.226-5.6,4.149,12.837,5.059-8.286h7.4v9.8A1.4,1.4,0,0,1,1299.328,514.576Z" transform="translate(-1267.938 -486.682)" fill="#4f7fe2"/>
  <path id="Path_26" data-name="Path 26" d="M1280.938,520.184h11.651l1.226-5.6,4.149,12.837,5.059-8.286h7.4v-1.775h-8.4l-3.563,5.836-4.98-15.406-2.324,10.624h-10.222Z" transform="translate(-1277.641 -502.434)" fill="#00d1cd"/>
</svg>
