<?xml version="1.0" encoding="utf-8"?>
<!-- Generator: Adobe Illustrator 24.3.0, SVG Export Plug-In . SVG Version: 6.00 Build 0)  -->
<svg version="1.1" id="Layer_1" xmlns="http://www.w3.org/2000/svg" xmlns:xlink="http://www.w3.org/1999/xlink" x="0px" y="0px"
	 viewBox="0 0 40 40" style="enable-background:new 0 0 40 40;" xml:space="preserve">
<style type="text/css">
	.st0{fill:#4F80E2;}
</style>
<g>
	<path class="st0" d="M32.5,5.1h-7.2V1.9c0-1-0.8-1.9-1.9-1.9h-7c-1,0-1.9,0.8-1.9,1.9v3.2H7.5C6.3,5.1,5.4,6,5.4,7.2l0,0
		c0,1.2,0.9,2.1,2.1,2.1h25.1c1.2,0,2.1-0.9,2.1-2.1l0,0C34.6,6,33.7,5.1,32.5,5.1z M17.6,2.9h4.8V5h-4.8V2.9z"/>
	<path class="st0" d="M32.5,10.9H7.5c-0.1,0-0.2,0-0.3,0c0,0.2,0,0.4,0,0.7l2.9,26.6c0.1,1,0.8,1.8,1.6,1.8h16.7
		c0.8,0,1.4-0.8,1.6-1.8l2.9-26.6c0-0.2,0-0.5,0-0.7C32.7,10.9,32.6,10.9,32.5,10.9z M14.8,35.8c0,0-0.1,0-0.1,0
		c-0.6,0-1.1-0.4-1.1-1l-2.2-20.2c-0.1-0.6,0.4-1.2,1-1.3c0.6-0.1,1.2,0.4,1.3,1l2.2,20.2C15.9,35.2,15.4,35.8,14.8,35.8z
		 M21.1,34.7c0,0.6-0.5,1.1-1.1,1.1s-1.1-0.5-1.1-1.1V14.5c0-0.6,0.5-1.1,1.1-1.1s1.1,0.5,1.1,1.1V34.7z M28.7,14.6l-2.2,20.2
		c-0.1,0.6-0.6,1-1.1,1c0,0-0.1,0-0.1,0c-0.6-0.1-1.1-0.6-1-1.3l2.2-20.2c0.1-0.6,0.6-1.1,1.3-1C28.3,13.4,28.8,14,28.7,14.6z"/>
</g>
</svg>
