<svg id="Group_871" data-name="Group 871" xmlns="http://www.w3.org/2000/svg" width="29.848" height="41.126" viewBox="0 0 29.848 41.126">
  <g id="Group_8" data-name="Group 8" transform="translate(4.561)">
    <path id="Path_8" data-name="Path 8" d="M722.542,282.724a10.055,10.055,0,0,0-.595-1.766,20.251,20.251,0,0,1-5.562.842h-.07a3.544,3.544,0,0,1,.032.469,3.5,3.5,0,0,1-.283,1.383A23.377,23.377,0,0,0,722.542,282.724Z" transform="translate(-702.543 -274.928)" fill="#00d1cd"/>
    <path id="Path_9" data-name="Path 9" d="M673.209,263.386a3.522,3.522,0,0,1,6.67,0,19.576,19.576,0,0,0,5.5-.781,10.138,10.138,0,0,0-17.916-.07A19.553,19.553,0,0,0,673.209,263.386Z" transform="translate(-666.263 -257.179)" fill="#4f7fe2"/>
    <path id="Path_10" data-name="Path 10" d="M676.478,291.207c-.346,0-.55-.012-.582-.013h0a3.519,3.519,0,0,1-5.767-.026l0,.026c-.032,0-.236.013-.582.013a23.966,23.966,0,0,1-6.655-1.018,10.136,10.136,0,1,0,19.977.076A23.9,23.9,0,0,1,676.478,291.207Z" transform="translate(-662.741 -281.818)" fill="#4f7fe2"/>
    <path id="Path_11" data-name="Path 11" d="M670.3,281.584a20.3,20.3,0,0,1-5.8-.915,10.081,10.081,0,0,0-.609,1.764,23.4,23.4,0,0,0,6.751,1,3.5,3.5,0,0,1-.283-1.383,3.544,3.544,0,0,1,.032-.469Z" transform="translate(-663.596 -274.712)" fill="#00d1cd"/>
  </g>
  <g id="Group_9" data-name="Group 9" transform="translate(13.742 6.199)">
    <path id="Path_12" data-name="Path 12" d="M700.032,283.8a1.084,1.084,0,1,1,1.084-1.084A1.085,1.085,0,0,1,700.032,283.8Zm0-1.507a.423.423,0,1,0,.423.423A.423.423,0,0,0,700.032,282.289Z" transform="translate(-698.948 -281.627)" fill="#00d1cd"/>
  </g>
  <path id="Path_13" data-name="Path 13" d="M714.717,291.406" transform="translate(-696.976 -282.727)" fill="#fff" stroke="#13a5d8" stroke-miterlimit="10" stroke-width="8"/>
  <path id="Path_14" data-name="Path 14" d="M666.913,338.392h-.379a24.187,24.187,0,0,1-2.995,11.215l-2.918-7.851.97-2.381a4.882,4.882,0,0,1-4.145,0l.794,2.381-2.254,7.906c-2.2-4.136-3.016-9.926-3.182-11.269h-.36a7.689,7.689,0,0,0-7.69,7.69v12.842H674.6V346.082A7.689,7.689,0,0,0,666.913,338.392Zm-6.889,15.354-.018-.007.055-.019Zm12.51-1.164h-2.209V354.8h-2.333v-2.215h-2.156v-2.376h2.156V348.06h2.333v2.147h2.209Z" transform="translate(-644.755 -317.798)" fill="#00d1cd"/>
</svg>
