<svg id="Group_45" data-name="Group 45" xmlns="http://www.w3.org/2000/svg" width="24.348" height="24.348" viewBox="0 0 24.348 24.348">
  <defs>
    <style>
      .cls-1 {
        fill: #c81200;
      }

      .cls-2 {
        fill: #17751e;
      }

      .cls-3 {
        fill: #ffc600;
      }
    </style>
  </defs>
  <path id="Path_87" data-name="Path 87" class="cls-1" d="M351.524,1730.78l-7.288.077a6.4,6.4,0,0,1,2.393,7.536l.018.007-3.712,9.709a12.175,12.175,0,0,0,8.59-17.329Z" transform="translate(-328.429 -1723.987)"/>
  <path id="Path_88" data-name="Path 88" class="cls-2" d="M326.382,1722v-.005h.128c.057,0,.113-.008.17-.008.038,0,.075,0,.113.006l10.156-.1a12.164,12.164,0,0,0-20.148-.575v.005l3.486,6.4A6.437,6.437,0,0,1,326.382,1722Z" transform="translate(-314.506 -1716.241)"/>
  <path id="Path_89" data-name="Path 89" class="cls-3" d="M318.3,1738.318l-.021.012-4.816-8.847a12.051,12.051,0,0,0-1.576,5.987,12.178,12.178,0,0,0,12.174,12.174q.516,0,1.016-.046h.005l2.6-6.815a6.418,6.418,0,0,1-9.381-2.465Z" transform="translate(-311.889 -1723.296)"/>
</svg>
