<svg xmlns="http://www.w3.org/2000/svg" width="42.711" height="40.642" viewBox="0 0 42.711 40.642">
  <g id="Group_870" data-name="Group 870" transform="translate(0)">
    <g id="Group_6" data-name="Group 6" transform="translate(14.366 9.394)">
      <g id="Group_5" data-name="Group 5">
        <path id="Path_6" data-name="Path 6" d="M932.373,301.082c.578,0,1.045.307,1.045.687s-.467.689-1.045.689H920.109l-2.468,5.665-5.309-10.457-2.651,7.22h-3.564c-.578,0-1.045-.309-1.045-.689s.467-.689,1.045-.689h2.6l3.408-9.282,5.419,10.67,1.659-3.814Z" transform="translate(-905.073 -294.225)" fill="#00d1cd"/>
      </g>
    </g>
    <path id="Path_7" data-name="Path 7" d="M881.789,276.692a12.814,12.814,0,1,1,.082-5.233h3.872a16.549,16.549,0,1,0-29.1,12.873,2.3,2.3,0,0,0-1.282.766l-6.4,7.574a2.312,2.312,0,0,0,.275,3.258l1.592,1.345A2.312,2.312,0,0,0,854.09,297l6.4-7.574a2.3,2.3,0,0,0,.541-1.392,16.548,16.548,0,0,0,24.605-11.343Z" transform="translate(-848.419 -257.179)" fill="#4f7fe2"/>
  </g>
</svg>
