<svg xmlns="http://www.w3.org/2000/svg" width="24.467" height="21.211" viewBox="0 0 24.467 21.211">
  <defs>
    <style>
      .cls-1 {
        fill: #4f80e2;
      }
    </style>
  </defs>
  <path id="Path_124" data-name="Path 124" class="cls-1" d="M647.678,724.859l-4.28-3.953V715h-4.09v2.131l-3.5-3.231a.423.423,0,0,0-.572,0l-11.75,10.961a.429.429,0,0,0-.072.544.445.445,0,0,0,.38.2h2.948v8.968a.425.425,0,0,0,.424.427H632.7a.408.408,0,0,0,.407-.409v-5.183a.514.514,0,0,1,.513-.516h3.924a.514.514,0,0,1,.513.516v5.183a.408.408,0,0,0,.407.409H644a.426.426,0,0,0,.424-.427V725.6h2.948a.445.445,0,0,0,.38-.2A.429.429,0,0,0,647.678,724.859Z" transform="translate(-623.35 -713.787)"/>
</svg>
