<svg xmlns="http://www.w3.org/2000/svg" width="27.343" height="41.291" viewBox="0 0 27.343 41.291">
  <g id="Group_872" data-name="Group 872" transform="translate(0)">
    <path id="Path_15" data-name="Path 15" d="M1120.964,480.086a5.05,5.05,0,1,0-5.05-5.05A5.056,5.056,0,0,0,1120.964,480.086Zm-3.008-5.9h2.16v-2.16h1.7v2.16h2.16v1.7h-2.16v2.16h-1.7v-2.16h-2.16Z" transform="translate(-1107.293 -469.986)" fill="#00d1cd"/>
    <path id="Path_16" data-name="Path 16" d="M1107.763,534.219V502.546h-6.341a6.657,6.657,0,0,1-11.671,0h-6.341v31.672h-1.5v1.362h27.343v-1.362Zm-6.678-24h3.528v3.528h-3.528Zm0,7.259h3.528v3.528h-3.528Zm-7.262-7.259h3.528v3.528h-3.528Zm0,7.259h3.528v3.528h-3.528Zm-7.262-7.259h3.528v3.528h-3.528Zm0,7.259h3.528v3.528h-3.528Zm4.721,16.74V526.85h3.854v7.368Zm4.755,0V526.85h3.854v7.368Z" transform="translate(-1081.915 -494.289)" fill="#4f7fe2"/>
  </g>
</svg>
