<svg xmlns="http://www.w3.org/2000/svg" width="183.556" height="42.488" viewBox="0 0 183.556 42.488">
  <defs>
    <style>
      .cls-1 {
        fill: #fff;
      }

      .cls-2 {
        fill: #00d1cd;
      }
    </style>
  </defs>
  <g id="Group_31" data-name="Group 31" transform="translate(-360.271 -489.056)">
    <g id="Group_27" data-name="Group 27">
      <path id="Path_51" data-name="Path 51" class="cls-1" d="M543.8,510.154a13.226,13.226,0,0,1-.41,4.018A16.623,16.623,0,0,1,534.86,525.2,16.547,16.547,0,0,1,510.7,510.5V494.1a5.04,5.04,0,0,1,10.08,0v16.4a6.474,6.474,0,1,0,12.947,0V502.81l6.993,2.7a4.763,4.763,0,0,1,.522.256,5.041,5.041,0,0,1,2.564,4.384Z"/>
    </g>
    <path id="Path_52" data-name="Path 52" class="cls-2" d="M543.8,495.525v-.484a5.34,5.34,0,0,0-.065-.666,6.218,6.218,0,1,0-9.21,6.318c.209.118.01-.02.645.314,8.318,2.862,8.63,4.544,8.63,4.544Z"/>
    <g id="Group_29" data-name="Group 29">
      <g id="Group_28" data-name="Group 28">
        <path id="Path_53" data-name="Path 53" class="cls-1" d="M536.521,495.8a.711.711,0,1,1-.711-.71A.711.711,0,0,1,536.521,495.8Z"/>
        <path id="Path_54" data-name="Path 54" class="cls-1" d="M538.585,495.8a.711.711,0,1,1-.711-.71A.711.711,0,0,1,538.585,495.8Z"/>
        <path id="Path_55" data-name="Path 55" class="cls-1" d="M540.649,495.8a.71.71,0,1,1-.71-.71A.71.71,0,0,1,540.649,495.8Z"/>
      </g>
    </g>
    <g id="Group_30" data-name="Group 30">
      <path id="Path_56" data-name="Path 56" class="cls-1" d="M363.951,505.468h15.112v-12.1a1.714,1.714,0,0,1,.552-1.288,1.834,1.834,0,0,1,1.313-.527,1.8,1.8,0,0,1,1.815,1.815v27.772a1.735,1.735,0,0,1-.539,1.288,1.883,1.883,0,0,1-2.613,0,1.752,1.752,0,0,1-.528-1.288v-12H363.951v12a1.732,1.732,0,0,1-.54,1.288,1.867,1.867,0,0,1-2.6,0,1.732,1.732,0,0,1-.54-1.288V493.373a1.732,1.732,0,0,1,.54-1.288,1.867,1.867,0,0,1,2.6,0,1.732,1.732,0,0,1,.54,1.288Z"/>
      <path id="Path_57" data-name="Path 57" class="cls-1" d="M391.109,513.221a7.69,7.69,0,0,0,2.588,4.624A7.75,7.75,0,0,0,396,519.207a8.078,8.078,0,0,0,5.974-.172,6.545,6.545,0,0,0,2.331-1.766,1.962,1.962,0,0,1,.956-.454,2.118,2.118,0,0,1,.884.061,1.759,1.759,0,0,1,.858.761,1.91,1.91,0,0,1,.344,1.214,1.753,1.753,0,0,1-.663,1.263,10,10,0,0,1-1.435,1.227,9.416,9.416,0,0,1-1.779.981,11.39,11.39,0,0,1-2.158.663,12.688,12.688,0,0,1-2.576.245,11.525,11.525,0,0,1-4.564-.908,11.653,11.653,0,0,1-6.243-6.207,11.776,11.776,0,0,1,0-9.126,11.7,11.7,0,0,1,2.514-3.717,11.948,11.948,0,0,1,3.729-2.5,11.788,11.788,0,0,1,9.1-.012,11.637,11.637,0,0,1,3.717,2.49,12.067,12.067,0,0,1,2.515,3.692,11.338,11.338,0,0,1,.956,4.514,1.7,1.7,0,0,1-.5,1.276,1.8,1.8,0,0,1-1.313.491Zm15.578-3.092a7.443,7.443,0,0,0-.9-2.662,8.106,8.106,0,0,0-1.742-2.146,7.9,7.9,0,0,0-2.392-1.423,7.991,7.991,0,0,0-2.87-.515,7.733,7.733,0,0,0-2.859.527,7.988,7.988,0,0,0-2.367,1.435,7.831,7.831,0,0,0-1.705,2.147,7.711,7.711,0,0,0-.871,2.637Z"/>
      <path id="Path_58" data-name="Path 58" class="cls-1" d="M412.575,511.565a11.39,11.39,0,0,1,.92-4.559,11.682,11.682,0,0,1,2.515-3.713,11.956,11.956,0,0,1,3.729-2.5,11.683,11.683,0,0,1,9.053-.013,11.951,11.951,0,0,1,3.692,2.463,11.567,11.567,0,0,1,2.5,3.664,11.736,11.736,0,0,1,.969,4.509v9.632a1.885,1.885,0,0,1-.539,1.348,1.8,1.8,0,0,1-1.35.563,1.651,1.651,0,0,1-1.288-.56,1.938,1.938,0,0,1-.5-1.34l-.024-1.217a12.74,12.74,0,0,1-3.607,2.473,10.3,10.3,0,0,1-4.366.939,11.347,11.347,0,0,1-4.539-.919,11.808,11.808,0,0,1-6.244-6.225A11.3,11.3,0,0,1,412.575,511.565Zm3.68,0a7.719,7.719,0,0,0,.627,3.1,8.222,8.222,0,0,0,1.707,2.543,8.1,8.1,0,0,0,2.543,1.732,8.058,8.058,0,0,0,6.29,0,8.012,8.012,0,0,0,4.239-4.275,7.866,7.866,0,0,0,.614-3.1,8.012,8.012,0,0,0-.614-3.133,7.864,7.864,0,0,0-1.7-2.543,8.034,8.034,0,0,0-2.544-1.708,8.213,8.213,0,0,0-6.29,0,7.941,7.941,0,0,0-4.25,4.251A7.862,7.862,0,0,0,416.255,511.565Z"/>
      <path id="Path_59" data-name="Path 59" class="cls-1" d="M444.541,521.145a1.735,1.735,0,0,1-.539,1.288,1.868,1.868,0,0,1-2.6,0,1.732,1.732,0,0,1-.54-1.288V493.373a1.72,1.72,0,0,1,.54-1.3,1.9,1.9,0,0,1,2.6,0,1.723,1.723,0,0,1,.539,1.3Z"/>
      <path id="Path_60" data-name="Path 60" class="cls-1" d="M455.311,499.875h2.871a1.84,1.84,0,1,1,0,3.68h-2.871v17.59a1.735,1.735,0,0,1-.539,1.288,1.793,1.793,0,0,1-1.3.527,1.822,1.822,0,0,1-1.325-.527,1.732,1.732,0,0,1-.539-1.288v-17.59h-2.356a1.8,1.8,0,0,1-1.324-.54,1.85,1.85,0,0,1,0-2.613,1.818,1.818,0,0,1,1.324-.527h2.356v-6.5a1.719,1.719,0,0,1,.539-1.3,1.845,1.845,0,0,1,1.325-.515,1.815,1.815,0,0,1,1.3.515,1.723,1.723,0,0,1,.539,1.3Z"/>
      <path id="Path_61" data-name="Path 61" class="cls-1" d="M466.572,503.53a11.131,11.131,0,0,1,3.275-2.687,8.212,8.212,0,0,1,3.938-.993,8.93,8.93,0,0,1,3.851.809,8.467,8.467,0,0,1,2.944,2.294,10.716,10.716,0,0,1,1.9,3.558,14.769,14.769,0,0,1,.675,4.6v10.058a1.725,1.725,0,0,1-.539,1.3,1.849,1.849,0,0,1-1.325.515A1.776,1.776,0,0,1,480,522.47a1.742,1.742,0,0,1-.528-1.3V511.062a11.629,11.629,0,0,0-.441-3.165,6.68,6.68,0,0,0-1.215-2.368,5.351,5.351,0,0,0-1.913-1.484,6,6,0,0,0-2.539-.515,6.239,6.239,0,0,0-2.613.552,6.644,6.644,0,0,0-2.122,1.521,7.619,7.619,0,0,0-1.46,2.281,7.916,7.916,0,0,0-.6,2.834v10.4a1.793,1.793,0,0,1-.528,1.3,1.73,1.73,0,0,1-1.288.539,1.8,1.8,0,0,1-1.324-.539,1.772,1.772,0,0,1-.54-1.3V493.447a1.822,1.822,0,0,1,.552-1.337,1.792,1.792,0,0,1,1.312-.552,1.713,1.713,0,0,1,1.288.552,1.864,1.864,0,0,1,.528,1.337Z"/>
      <path id="Path_62" data-name="Path 62" class="cls-1" d="M496.429,516.851l7.016-15.872a1.882,1.882,0,0,1,1.018-1.006,1.641,1.641,0,0,1,1.411.049,1.843,1.843,0,0,1,.969,1.03,1.764,1.764,0,0,1-.037,1.423l-12.512,27.943a1.93,1.93,0,0,1-1.043.994,1.73,1.73,0,0,1-1.41-.037,1.573,1.573,0,0,1-.9-1.03,1.964,1.964,0,0,1,.16-1.4l3.41-7.728-8.366-18.743a1.866,1.866,0,0,1-.184-.736,1.683,1.683,0,0,1,.123-.7,2.151,2.151,0,0,1,.38-.613,1.6,1.6,0,0,1,.589-.43,1.7,1.7,0,0,1,1.41-.024,1.884,1.884,0,0,1,1.019,1.006Z"/>
    </g>
  </g>
</svg>
