<svg xmlns="http://www.w3.org/2000/svg" width="19.003" height="35.828" viewBox="0 0 19.003 35.828">
  <g id="Group_877" data-name="Group 877" transform="translate(0)">
    <path id="Path_37" data-name="Path 37" d="M902.728,696.72a3.418,3.418,0,0,0-3.414-3.414H887.552a3.418,3.418,0,0,0-3.414,3.414V711.47c0,1.352,3.274,4.93,3.93,5.633.887.951,3.782,3.954,5.178,4.22v2.344H892.4v2.8h.851v2.671h1.036v-2.671h.83v-2.8h-.83v-2.33c1.312-.151,3.99-3.027,5.1-4.284.627-.708,3.757-4.31,3.756-5.679Zm-3.989,19.762c-2.3,2.6-4.067,4-4.56,4h-.746c-.5,0-2.33-1.39-4.733-3.967-2.315-2.482-3.7-4.514-3.7-5.045V696.72a2.553,2.553,0,0,1,2.55-2.55h11.762a2.556,2.556,0,0,1,2.55,2.562l.414,14.656C902.278,711.927,900.954,713.98,898.738,716.482Z" transform="translate(-884.138 -693.306)" fill="#4f7fe2"/>
    <rect id="Rectangle_4" data-name="Rectangle 4" width="1.708" height="0.518" transform="translate(1.783 3.731)" fill="#4f7fe2"/>
    <rect id="Rectangle_5" data-name="Rectangle 5" width="1.708" height="0.518" transform="translate(1.783 6.216)" fill="#4f7fe2"/>
    <rect id="Rectangle_6" data-name="Rectangle 6" width="1.708" height="0.518" transform="translate(1.783 8.7)" fill="#4f7fe2"/>
    <rect id="Rectangle_7" data-name="Rectangle 7" width="1.708" height="0.518" transform="translate(1.783 11.185)" fill="#4f7fe2"/>
    <path id="Path_38" data-name="Path 38" d="M890.863,743.986h1.613v.518h-1.613v1.719h1.613v.518h-1.613v1.719h1.613v.518H891.07a29.3,29.3,0,0,0,7.6,7.73c2.592-.406,7.67-8.15,7.67-8.15l.017-5.668H890.863Z" transform="translate(-889.158 -730.316)" fill="#00d1cd"/>
  </g>
</svg>
