<svg xmlns="http://www.w3.org/2000/svg" width="27.088" height="25.65" viewBox="0 0 27.088 25.65">
  <g id="Group_875" data-name="Group 875" transform="translate(0)">
    <path id="Path_29" data-name="Path 29" d="M1087.82,722.434a7,7,0,0,0-9.875-.573l-6.7,5.965-6.4,5.7a6.995,6.995,0,0,0,9.3,10.449l6.4-5.7h0l6.7-5.962A7,7,0,0,0,1087.82,722.434Zm-14.451,20.508a5.723,5.723,0,0,1-7.611-8.549l5.58-4.968,7.492,8.656Z" transform="translate(-1062.503 -720.091)" fill="#4f7fe2"/>
    <path id="Path_30" data-name="Path 30" d="M1073.073,770.91c2.323-1.918,4.689-3.787,7.008-5.706L1079,763.952l-4.428,3.942A4.5,4.5,0,0,0,1073.073,770.91Z" transform="translate(-1070.393 -752.83)" fill="#00d1cd"/>
  </g>
</svg>
