<svg xmlns="http://www.w3.org/2000/svg" width="58" height="58" viewBox="0 0 58 58">
  <defs>
    <style>
      .cls-1 {
        fill: #4f80e2;
      }

      .cls-2 {
        fill: #00d1cd;
      }

      .cls-3 {
        fill: #efefef;
      }
    </style>
  </defs>
  <g id="Group_938" data-name="Group 938" transform="translate(-159 -396)">
    <g id="Group_935" data-name="Group 935" transform="translate(-93 90)">
      <circle id="Ellipse_100" data-name="Ellipse 100" class="cls-1" cx="29" cy="29" r="29" transform="translate(252 306)"/>
    </g>
    <g id="Group_49" data-name="Group 49" transform="translate(-188.922 151.821)">
      <circle id="Ellipse_1" data-name="Ellipse 1" class="cls-2" cx="7.762" cy="7.762" r="7.762" transform="translate(369.352 257.179)"/>
      <path id="Path_76" data-name="Path 76" class="cls-3" d="M382.921,338.392h-.29a9.478,9.478,0,0,1-4,1.861h0l-.017,0h0a7.893,7.893,0,0,1-2.581.01l0,.008c-.059-.01-.115-.023-.174-.035l-.13-.023v0a8.1,8.1,0,0,1-3.633-1.822h-.276a5.9,5.9,0,0,0-5.9,5.9v9.852h22.9v-9.852A5.9,5.9,0,0,0,382.921,338.392Zm-5.285,11.779-.013-.005.042-.015Z" transform="translate(0 -65.414)"/>
    </g>
  </g>
</svg>
