<svg xmlns="http://www.w3.org/2000/svg" width="58" height="58" viewBox="0 0 58 58">
  <defs>
    <style>
      .cls-1, .cls-5 {
        fill: none;
      }

      .cls-1 {
        stroke: #4f80e2;
      }

      .cls-2 {
        fill: #00d1cd;
      }

      .cls-3 {
        fill: #4f80e2;
      }

      .cls-4 {
        stroke: none;
      }
    </style>
  </defs>
  <g id="Group_939" data-name="Group 939" transform="translate(-159 -533)">
    <g id="Group_936" data-name="Group 936" transform="translate(-93 227)">
      <g id="Ellipse_100" data-name="Ellipse 100" class="cls-1" transform="translate(252 306)">
        <circle class="cls-4" cx="29" cy="29" r="29"/>
        <circle class="cls-5" cx="29" cy="29" r="28.5"/>
      </g>
    </g>
    <g id="Group_50" data-name="Group 50" transform="translate(-155.299 56.987)">
      <circle id="Ellipse_2" data-name="Ellipse 2" class="cls-2" cx="7.761" cy="7.761" r="7.761" transform="translate(335.621 487.45)"/>
      <g id="Group_40" data-name="Group 40" transform="translate(324.046 507.023)">
        <g id="Group_39" data-name="Group 39" transform="translate(0 0)">
          <path id="Rectangle_8" data-name="Rectangle 8" class="cls-2" d="M1.388,0h0A1.388,1.388,0,0,1,2.776,1.388V7.733A1.388,1.388,0,0,1,1.388,9.121h0A1.388,1.388,0,0,1,0,7.733V1.388A1.388,1.388,0,0,1,1.388,0Z"/>
          <path id="Rectangle_9" data-name="Rectangle 9" class="cls-2" d="M1.388,0h0A1.388,1.388,0,0,1,2.776,1.388V7.733A1.388,1.388,0,0,1,1.388,9.121h0A1.388,1.388,0,0,1,0,7.733V1.388A1.388,1.388,0,0,1,1.388,0Z" transform="translate(15.023)"/>
        </g>
        <path id="Path_77" data-name="Path 77" class="cls-2" d="M341.251,606.329h.373a2.029,2.029,0,0,1,.139-1.312l.863-1.993h-1.374Zm10.254-3.305,0,.927c0,.009,0,.018,0,.026a1.742,1.742,0,0,1-.2.73.511.511,0,0,1,.207.41v1.212h.849v-3.305Z" transform="translate(-337.904 -600.116)"/>
        <path id="Path_78" data-name="Path 78" class="cls-2" d="M354.4,594.55l.005-1.9V592.4a.951.951,0,0,0-.82-1.041h-.289a.748.748,0,0,1-1.448,0h-.289a.748.748,0,0,1-1.449,0h-.289a.748.748,0,0,1-1.448,0h-.289a.84.84,0,0,0-.751.623,1.261,1.261,0,0,1,.318-.041,1.317,1.317,0,0,1,.821.295,1.93,1.93,0,0,1,.446,2.3h0v0l-.488.977a.834.834,0,0,0,.669-.558.82.82,0,0,0,.724.562h.29a.748.748,0,0,1,1.448,0h.288a.748.748,0,0,1,1.448,0h.289A.929.929,0,0,0,354.4,594.55Zm-6.285,7a.933.933,0,0,0,.806,1.021h4.631a1.051,1.051,0,0,0,0-2.043h-4.632A.933.933,0,0,0,348.113,601.552Zm-2.48-4.388L348.2,599.9a.851.851,0,0,0,.638.258l.014,0h4.729a.951.951,0,0,0,.82-1.041V595.71h-.023a1.193,1.193,0,0,1-.8.309h-.29a1.17,1.17,0,0,0-1.446,0h-.29a1.169,1.169,0,0,0-1.446,0h-.292a1.171,1.171,0,0,0-1.445,0h-.292a1.164,1.164,0,0,1-.427-.083l.812-1.625a1.429,1.429,0,0,0-.307-1.687.818.818,0,0,0-.51-.187.938.938,0,0,0-.819.576l-.071.164h0l-1.146,2.647A1.511,1.511,0,0,0,345.632,597.164Z" transform="translate(-341.299 -590.716)"/>
      </g>
      <path id="Path_79" data-name="Path 79" class="cls-3" d="M387,568.663h-.29a9.478,9.478,0,0,1-4,1.86h0l-.017,0h0a7.9,7.9,0,0,1-2.58.01l0,.008c-.059-.01-.115-.024-.173-.035l-.13-.023v0a8.1,8.1,0,0,1-3.632-1.821H375.9a5.892,5.892,0,0,0-4.913,2.635h9.3a.9.9,0,0,1,.9.9v12.211H392.9v-9.851A5.9,5.9,0,0,0,387,568.663Zm-5.285,11.778-.013-.005.042-.015Z" transform="translate(-37.81 -65.416)"/>
    </g>
  </g>
</svg>
