<svg xmlns="http://www.w3.org/2000/svg" width="21.12" height="13.606" viewBox="0 0 21.12 13.606">
  <defs>
    <style>
      .cls-1 {
        fill: #fff;
      }
    </style>
  </defs>
  <g id="Group_34" data-name="Group 34" transform="translate(-955 -703.722)">
    <g id="Group_33" data-name="Group 33" transform="translate(955 703.722)">
      <g id="Group_32" data-name="Group 32" transform="translate(0)">
        <path id="Path_63" data-name="Path 63" class="cls-1" d="M962.136,715.768a3.728,3.728,0,0,1,4.9-4.9l1.483-1.483a10.579,10.579,0,0,0-2.957-.439c-5.832,0-10.56,5.345-10.56,5.345a19.582,19.582,0,0,0,4.85,3.76Z" transform="translate(-955 -707.515)"/>
        <path id="Path_64" data-name="Path 64" class="cls-1" d="M990.206,714.172l-2.142,2.142a3.728,3.728,0,0,1-5.05,5.051l-1.523,1.523a10.741,10.741,0,0,0,3.294.542c5.832,0,10.56-5.345,10.56-5.345A19.533,19.533,0,0,0,990.206,714.172Z" transform="translate(-974.225 -711.306)"/>
        <path id="Path_65" data-name="Path 65" class="cls-1" d="M991,728.565a2.63,2.63,0,0,0,2.454-3.574l-3.4,3.4A2.623,2.623,0,0,0,991,728.565Z" transform="translate(-980.44 -719.157)"/>
        <path id="Path_66" data-name="Path 66" class="cls-1" d="M986.544,719.13a.957.957,0,0,1,.338.062l.27-.27a2.632,2.632,0,0,0-3.167,3.167l1.667-1.667a.953.953,0,0,1,.891-1.291Z" transform="translate(-975.984 -714.701)"/>
        <path id="Path_67" data-name="Path 67" class="cls-1" d="M973.469,712.736l3.619-3.619.791-.791,1.955-1.955,1.355-1.355a.758.758,0,0,0-1.072-1.072h0l-1.807,1.807-1.548,1.548-.811.811-.374.374-1.343,1.343-1.771,1.771-.811.811-2.077,2.077-1.548,1.548h0a.758.758,0,1,0,1.072,1.072h0l1.971-1.971,1.608-1.608Z" transform="translate(-964.293 -703.722)"/>
      </g>
      <path id="Path_68" data-name="Path 68" class="cls-1" d="M990.98,719.87a.953.953,0,0,0-.891,1.291l1.229-1.229A.956.956,0,0,0,990.98,719.87Z" transform="translate(-980.42 -715.441)"/>
    </g>
  </g>
</svg>
