<svg xmlns="http://www.w3.org/2000/svg" width="39.202" height="30.607" viewBox="0 0 39.202 30.607">
  <path id="Path_632" data-name="Path 632" d="M870.379,530.132l1.313-.955-5.556-7.322-1.313.954,1.681,2.215-3.834,2.787-2.529-3.332-22.194,16.135,1.269,1.672-3.6,7.377-3.131,2.276.4.524,3.2-2.324c1.887-.159,6.992-1.231,8-1.445l1.119,1.475,22.194-16.135-2.486-3.276,3.834-2.787Zm-19.956,12.774-3.677-5.221,2.166-1.574,2.8,3.782.939-.695-2.793-3.774,5.977-4.345,2.879,3.889.939-.695-2.873-3.882,2.79-2.029,3.861,5.088Z" transform="translate(-832.489 -521.856)" fill="#4f7fe2"/>
</svg>
