<?xml version="1.0" encoding="utf-8"?>
<!-- Generator: Adobe Illustrator 24.3.0, SVG Export Plug-In . SVG Version: 6.00 Build 0)  -->
<svg version="1.1" id="Layer_1" xmlns="http://www.w3.org/2000/svg" xmlns:xlink="http://www.w3.org/1999/xlink" x="0px" y="0px"
	 viewBox="0 0 40 40" style="enable-background:new 0 0 40 40;" xml:space="preserve">
<style type="text/css">
	.st0{fill:#4F80E2;}
</style>
<g>
	<path class="st0" d="M33.2,23.9c0-2.7,4.1-2.7,4.1,0v10.7c0,3-2.5,5.4-5.4,5.4H5.4c-3,0-5.4-2.5-5.4-5.4V7.9c0-3,2.5-5.4,5.4-5.4
		h11.4c2.7,0,2.7,4.1,0,4.1H5.4c-0.7,0-1.3,0.6-1.3,1.3v26.6c0,0.7,0.6,1.3,1.3,1.3h26.4c0.7,0,1.3-0.6,1.3-1.3V23.9L33.2,23.9z
		 M34.4,0.5l5.1,5.1c0.7,0.7,0.7,1.7,0,2.4L22.6,24.9L14,26.1l1.1-8.7L32,0.5C32.7-0.1,33.7-0.1,34.4,0.5L34.4,0.5z"/>
</g>
</svg>
